<?xml version="1.0" encoding="utf-8"?>
<!-- Generator: Adobe Illustrator 24.2.3, SVG Export Plug-In . SVG Version: 6.00 Build 0)  -->
<svg version="1.1" id="Layer_1" xmlns="http://www.w3.org/2000/svg" xmlns:xlink="http://www.w3.org/1999/xlink" x="0px" y="0px"
	 viewBox="0 0 220 161" style="enable-background:new 0 0 220 161;" xml:space="preserve">
<style type="text/css">
	.st0{fill:#AE2324;}
	.st1{fill:#FFE800;}
	.st2{fill:#D59E00;}
	.st3{fill:#FFFFFF;}
</style>
<g id="logo">
	<path id="jupi_R" class="st0" d="M218.3,11c-0.9-1.6-2.4-2.9-4.1-3.6c-1.3-0.6-2.8-0.9-4.2-0.9c-6.8,0-13.1,6.8-15.1,13.1
		c-1.1,2.8-0.8,5.9,0.6,8.6c-3.3,1.1-6.4,2.6-9.3,4.5c-0.5,0.3-0.9,0.6-1.3,1c-0.4-0.7-0.8-1.4-1.3-2.1c-0.8-1.2-1.7-2.4-2.8-3.4
		c-1.5-1.5-3.3-2.7-5.3-3.6c0.8-1,1.2-2.3,1.1-3.5c-0.1-1.1-0.5-2.1-1.2-2.9c-1.9-3.5-7.8-4.8-12.8-4.8c-9.2-0.4-17.9,4.1-23,11.7
		c-1.6,2.5-2.9,4.8-4,7c-0.1-0.2-0.2-0.3-0.4-0.5c-1.4-2.2-3.9-3.5-6.5-3.3c-2.5,0.1-5.1,0.7-7.4,1.6c-5.7,2.2-10.6,10.1-14.8,17.3
		l-0.4,0.7c-3.8,6.5-7.9,12.8-12.4,18.8c-0.7,1-1.4,1.9-2.1,2.7c3.3-7.3,8.2-16,11.8-22.4c2.1-3.7,3.7-6.6,4.5-8.3
		c1.1-2,1.1-4.4-0.1-6.4c-0.1-0.2-0.2-0.3-0.4-0.5c-0.1-0.1-0.1-0.2-0.2-0.3c-1.5-2.1-4-3.2-6.5-3c-3.3,0.1-6.4,1-9.3,2.6l-0.1,0.1
		l-0.1,0.1l0,0c-0.3,0.2-0.6,0.4-0.8,0.5c-0.3,0.2-0.7,0.5-1.2,0.8c2.4-7.1,4.7-14.3,6.7-21.6c0.6-2,0.2-4.3-1.1-6l0-0.1
		c-0.1-0.3-0.3-0.5-0.5-0.7C92.6,1.4,88.2,0,81.6,0c-8.8,0-21,2.8-27,8c-4.3,3.7-8.2,14.3-8.3,18.7c-0.1,1.4,0.3,2.8,1.2,3.9
		c0.2,0.4,0.5,0.8,0.9,1.2c1.3,1.2,3.1,1.9,4.9,1.9c2.7-0.1,5.3-1.3,7.1-3.3c0.7-0.7,1.9-2.2,3.5-4.2c1.2-1.5,3.3-4,5.5-6.5
		c-0.8,2.6-1.7,5.8-3,9.7c-2.9,8.8-6.6,18.4-8.6,22.9c-3.5,7.8-7.5,15.4-11.9,22.8c-0.4-2.7-1.2-5.3-2.4-7.8
		c-0.6-1.3-1.3-2.5-2.1-3.6c-1.2-2.1-3-3.9-5.2-5c-2-0.8-4.2-1.2-6.4-1.2c-8,0-15.4,5.4-22,16c-6.7,10.8-9,20.8-6.8,29.7
		c0.8,3.1,2.1,6,3.9,8.6c1.8,2.9,4.3,5.4,7.1,7.3c4.2,2.8,8.7,5.4,14.2,5.4c3.2,0,6.4-1,9.2-2.7c13.3-8.1,22.5-20.8,30.2-34.4
		c0.1,0.9,0.3,1.9,0.5,2.8c0.4,1.2,0.9,2.3,1.7,3.3c2.9,4.3,7.9,6.7,13.1,6.4c3.4,0.1,6.8-0.9,9.7-2.8c2.4-1.7,4.5-3.7,6.3-6
		c0.1,1.6,0.6,3.2,1.5,4.5l0.1,0.1c0.1,0.3,0.3,0.5,0.5,0.7c1.2,1.6,3.1,2.5,5.1,2.4c1.3,0,2.7-0.3,3.9-0.8c0.9-0.4,1.8-0.9,2.6-1.4
		c-0.8,2.2-1.5,4.3-2.1,6.4l-1.2,1.6l0.9-0.5c-5.2,16-8.2,27.8-8.9,35.1c-0.5,5.1,0.9,10.2,3.8,14.5c0.6,1,1.3,1.9,2.1,2.8
		c2.4,2.9,5.8,4.6,9.5,4.8c0.2,0,0.5,0,0.7,0c4.2-0.3,5.5-5.2,6-7.1c0.8-3.2,1.4-6.5,1.8-9.8c0.4-2.8,0.9-5.6,1.4-8.1
		c0.2-1,0.5-2.3,0.8-3.8c3-16.2,7.6-32.1,13.7-47.5c0.6,2.2,1.6,4.3,2.9,6.2c1.5,2.6,3.9,4.6,6.6,5.7c1.6,0.5,3.3,0.8,4.9,0.8
		c5.5,0,10.9-2.9,16.2-8.6c0.9-1,1.8-2,2.6-3.1c0.1,3.5,1.2,6.8,3.1,9.8c0.4,0.6,0.8,1.2,1.3,1.8c1.1,1.2,2.6,1.9,4.2,1.9
		c1.4,0,2.8-0.6,3.8-1.6c4-3.7,8.8-11.7,14.5-23.8c2.9-6.6,5.6-13.4,7.8-20.2c4.5-13.8,4.2-19.3,3-22.1c5-2.5,8.8-7.1,10.3-12.5
		C220.4,16.2,219.9,13.3,218.3,11z"/>
	<g id="jupi_Y" transform="translate(1.328 1.479)">
		<path id="Path_1" class="st1" d="M55.6,9.1c-3.9,3.3-8.5,16-6.8,17.6c1.6,1.5,4.5,1.1,6.8-1.3C58.3,22.6,72,4.5,73.7,7.3
			c1.9,3-9.8,35.8-14.1,45.3C52.1,69,43.2,85.1,30.7,98.4c-2.8,3-15.8,16.4-19.7,9.5c-2.8-5,7.2-29.5,18.5-33
			c3.8-1.2,5.2,1.8,8.6,1.8c5,0-1.3-14.3-5-15.7c-9.4-3.5-17.6,2.9-24.2,13.5c-14.3,22.9-3.6,36.1,2.6,40.2
			c5.6,3.7,11.9,7.3,19.6,2.7C48,107,58.1,88.5,66.7,71.5C76.9,51,85.1,29.5,91.2,7.5C93.6-1.2,64.9,1,55.6,9.1z"/>
		<path id="Path_2" class="st1" d="M181.2,39.6c-0.3-7.9-6.7-14.1-14.6-14.2c-6.6,0.3-13.2,5.8-18.6,13.1c2.8-5.1,6.7-9.5,11.4-13
			c3.6-2.5,11.3-3.8,11.1-6.5c-0.3-4.3-21.5-7-29.9,6.4c-7.4,11.8-9.4,18.7-14.6,31.3c-5.3,12.8-24.4,61.3-26.2,80.8
			c-0.9,9.7,6.2,17.5,11.7,17.1c3.3-0.3,4-13.2,5.9-21.9c2-9.2,6.9-39.8,23.7-70.6c4.9-8.9,15.9-25.2,25.6-26
			c6.7-0.6,3.7,17.8-12.3,40.1c-2.1,3.4-6.1,5.1-10,4.2c-2.3-0.4-3-4.7-3.8-4.1c-3,2,0.3,12.4,6,14.3
			C164.9,96.8,182.6,55.3,181.2,39.6z M112,95.6L112,95.6L112,95.6L112,95.6z"/>
		<path id="Path_3" class="st1" d="M119.6,69c0.2-1.7-9.4,5.4-8.5,1.1c1.4-6.5,9.7-19.2,15.4-28.4c2-3.3,4.4-6.7,4.4-8.7
			c0-4.5-6.4-2.9-9.8-1.6c-5.3,2-10.8,12-13.4,16.6c-7,12.1-20.9,32.4-25.7,31.8c-2.2-0.3,0.1-6,3.8-14.2
			c5.3-11.7,14.6-26.9,16.6-31.3c2.5-5.4-5.9-4.9-10.8-2l0,0l-0.1,0c-0.2,0.2-0.5,0.3-0.7,0.5c-3.7,2.4-7.1,5.3-10.1,8.5
			c-3.9,4.9-1.3,5-1.3,5s1,0.2,3.2-1.8c-7.9,13.1-18.4,33.9-15.5,43c2.1,6.8,12.8,8.1,18.4,4.2c6.5-4.4,9.9-12.7,15.4-18.1
			c1.8-0.8-8.8,23.1,2.8,18.6C110.1,89.8,118.9,74.7,119.6,69z"/>
		<path id="Path_4" class="st1" d="M200.7,28.4c-5.3,0.5-10.4,2.4-14.8,5.4c-4.7,3.1-4.4,7.7-2.7,8.4c1.1,0.5,4.5-5.8,6.3-4.7
			c0.8,0.7-2.5,10.3-6.1,19.9c-1.3,3.4-3.7,8.8-7,15.7c-1.9,3.3-3.1,7-3.6,10.8c-0.1,4,2.7,11.7,5.8,8.9c4.5-4.1,9.9-14.6,13.7-22.9
			C195.4,63.5,210,28.2,200.7,28.4z"/>
		<path id="Path_5" class="st1" d="M210.5,9.1c-8.3-3.9-19,12.5-13.2,16.5C205.9,31.6,219.9,13.5,210.5,9.1z"/>
	</g>
	<path id="bg" class="st2" d="M61.8,103.3c-3.6,0.8-6.7,2.9-8.8,5.9c-7.8,12.4-1,21-1,21c0.2-1.7,1.3-3.2,2.9-4
		c10.2-6.9,41.1-7.7,62.4-6.6c6.1,0.3,31.1,4.8,41.3-0.1c6.7-3.2,10.2-16.1,5.8-22.9c-0.6,3.8-8.4,5.3-13.3,5.1
		c-19.4-0.9-35-2.5-48.1-2.4C81.1,99.6,67.7,101.6,61.8,103.3z"/>
	<g id="alimentos" transform="translate(27.621 45.004)">
		<path id="Path_6" class="st3" d="M42.5,70.7l-0.7-1.2L38,70.3l-0.2,1.4c0,0.4-0.1,0.8-0.2,1.2c-0.1,0.2-0.3,0.4-0.5,0.4
			c-0.2,0-0.5,0-0.7-0.2c-0.2-0.1-0.4-0.4-0.4-0.6c0-0.2,0-0.3,0-0.5c0-0.2,0-0.4,0.1-0.7l1-7.2l0.1-0.7c0-0.3,0.1-0.5,0.2-0.7
			c0.1-0.2,0.2-0.4,0.3-0.5c0.4-0.3,0.9-0.4,1.3-0.3c0.2,0.1,0.4,0.2,0.5,0.3c0.1,0.2,0.3,0.3,0.4,0.5c0.1,0.2,0.3,0.4,0.4,0.8
			l3.8,6.2c0.2,0.3,0.4,0.7,0.5,1.1c0,0.2,0,0.5-0.1,0.7c-0.1,0.2-0.3,0.4-0.6,0.4c-0.1,0-0.3,0-0.4,0c-0.1,0-0.2-0.1-0.3-0.2
			c-0.1-0.1-0.2-0.3-0.3-0.4C42.7,71.1,42.6,70.9,42.5,70.7z M38.2,68.6L41,68l-2.3-4L38.2,68.6z"/>
		<path id="Path_7" class="st3" d="M47.6,61.5l1.1,7.6l3.9-0.5c0.3-0.1,0.5,0,0.7,0.2c0.2,0.1,0.3,0.4,0.3,0.6c0,0.2,0,0.5-0.2,0.7
			c-0.2,0.2-0.4,0.3-0.7,0.3L48.2,71c-0.3,0.1-0.7,0-0.9-0.2c-0.2-0.3-0.4-0.6-0.4-1l-1.2-8.1c-0.1-0.3,0-0.7,0.1-1
			c0.1-0.2,0.4-0.4,0.6-0.4c0.3,0,0.5,0,0.7,0.2C47.4,60.8,47.6,61.1,47.6,61.5z"/>
		<path id="Path_8" class="st3" d="M56,68.9l-0.8-8.3c-0.1-0.3,0-0.7,0.2-1c0.1-0.2,0.4-0.4,0.7-0.4c0.3,0,0.5,0.1,0.7,0.3
			c0.2,0.3,0.4,0.6,0.4,1l0.8,8.3c0.1,0.3,0,0.7-0.2,1c-0.1,0.2-0.4,0.4-0.7,0.4c-0.3,0-0.5-0.1-0.7-0.3C56.1,69.6,56,69.2,56,68.9z
			"/>
		<path id="Path_9" class="st3" d="M64.2,67.7l-1.8-6.7l0.3,7.3c0,0.3,0,0.6-0.2,0.9c-0.3,0.4-0.8,0.4-1.2,0.2c0,0-0.1-0.1-0.1-0.1
			c-0.2-0.3-0.3-0.6-0.3-0.9l-0.4-8.4c-0.1-0.3,0-0.7,0.3-1c0.3-0.2,0.6-0.3,0.9-0.3l0.6,0c0.3,0,0.5,0,0.8,0.1
			c0.2,0.1,0.3,0.2,0.4,0.4c0.1,0.3,0.2,0.6,0.3,0.9l1.6,5.8l1.1-5.9c0.1-0.3,0.1-0.6,0.2-0.9c0.1-0.2,0.2-0.3,0.3-0.4
			c0.2-0.1,0.5-0.1,0.8-0.1l0.6,0c0.3,0,0.6,0,0.9,0.2c0.3,0.2,0.4,0.6,0.4,0.9l0.4,8.4c0,0.3,0,0.6-0.2,0.9
			c-0.1,0.2-0.4,0.3-0.6,0.3c-0.2,0-0.5-0.1-0.6-0.3c-0.2-0.3-0.3-0.6-0.3-0.9L68,60.8l-1.2,6.8c-0.1,0.4-0.1,0.8-0.2,1
			c-0.1,0.2-0.2,0.4-0.3,0.6c-0.2,0.2-0.4,0.3-0.7,0.3c-0.2,0-0.4,0-0.6-0.1c-0.2-0.1-0.3-0.2-0.4-0.4c-0.1-0.2-0.2-0.4-0.2-0.6
			C64.4,68.2,64.3,68,64.2,67.7z"/>
		<path id="Path_10" class="st3" d="M79.6,60.4l-4.3-0.1l-0.1,2.6l4,0.1c0.2,0,0.5,0.1,0.7,0.2c0.1,0.2,0.2,0.4,0.2,0.6
			c0,0.2-0.1,0.4-0.2,0.6c-0.2,0.2-0.4,0.2-0.7,0.2l-4-0.1l-0.1,3l4.5,0.1c0.3,0,0.5,0.1,0.7,0.3c0.2,0.2,0.2,0.4,0.2,0.6
			c0,0.2-0.1,0.4-0.3,0.6c-0.2,0.2-0.4,0.2-0.7,0.2l-5.2-0.2c-0.3,0-0.7-0.1-0.9-0.3c-0.2-0.3-0.3-0.7-0.2-1l0.3-8
			c0-0.3,0-0.5,0.1-0.8c0.1-0.2,0.2-0.3,0.4-0.4c0.2-0.1,0.4-0.1,0.7-0.1l5.1,0.2c0.3,0,0.5,0.1,0.7,0.2c0.3,0.4,0.3,0.9,0,1.2
			C80.1,60.3,79.8,60.4,79.6,60.4z"/>
		<path id="Path_11" class="st3" d="M86.3,60.4l3.1,6.6l0.6-6.3c0-0.3,0.1-0.6,0.3-0.9c0.2-0.2,0.4-0.3,0.7-0.2
			c0.3,0,0.5,0.2,0.6,0.4c0.2,0.3,0.2,0.6,0.1,0.9l-0.8,8.3c-0.1,0.9-0.5,1.3-1.2,1.3c-0.2,0-0.3-0.1-0.5-0.1
			c-0.1-0.1-0.3-0.2-0.4-0.3c-0.1-0.1-0.2-0.3-0.3-0.5c-0.1-0.2-0.2-0.3-0.3-0.5l-3-6.5l-0.6,6.2c0,0.3-0.1,0.6-0.3,0.9
			c-0.3,0.3-0.9,0.3-1.2,0c0,0-0.1-0.1-0.1-0.1c-0.2-0.3-0.2-0.6-0.2-0.9l0.8-8.1c0-0.3,0.1-0.5,0.2-0.8c0.1-0.2,0.3-0.4,0.5-0.5
			c0.2-0.1,0.4-0.2,0.6-0.1c0.2,0,0.3,0.1,0.4,0.1c0.1,0.1,0.2,0.2,0.3,0.3c0.1,0.1,0.2,0.3,0.2,0.4L86.3,60.4z"/>
		<path id="Path_12" class="st3" d="M100.7,62.4l-2.1-0.2L98,69.9c0,0.4-0.1,0.7-0.3,1c-0.2,0.2-0.4,0.3-0.7,0.3
			c-0.3,0-0.5-0.2-0.7-0.4c-0.2-0.3-0.2-0.7-0.2-1l0.6-7.7l-2.1-0.2c-0.3,0-0.5-0.1-0.7-0.3c-0.2-0.2-0.2-0.4-0.2-0.7
			c0-0.2,0.1-0.5,0.3-0.6c0.2-0.2,0.5-0.2,0.7-0.2l6.1,0.5c0.3,0,0.5,0.1,0.7,0.3c0.2,0.2,0.2,0.4,0.2,0.7c0,0.2-0.1,0.5-0.3,0.6
			C101.3,62.3,101,62.4,100.7,62.4z"/>
		<path id="Path_13" class="st3" d="M107.7,60.8c0.9,0,1.8,0.3,2.5,0.8c0.7,0.5,1.2,1.2,1.5,2c0.3,0.9,0.5,1.9,0.4,2.9
			c0,0.8-0.2,1.5-0.4,2.2c-0.2,0.6-0.5,1.2-1,1.7c-0.4,0.5-0.9,0.8-1.5,1.1c-1.3,0.5-2.7,0.4-4-0.2c-0.6-0.3-1-0.7-1.4-1.2
			c-0.4-0.5-0.7-1.2-0.8-1.8c-0.2-0.7-0.2-1.5-0.2-2.2c0-0.8,0.2-1.5,0.4-2.2c0.2-0.6,0.6-1.2,1-1.7c0.4-0.5,0.9-0.8,1.5-1
			C106.3,60.9,107,60.8,107.7,60.8z M110.1,66.4c0.1-0.7,0-1.4-0.2-2c-0.2-0.5-0.5-1-0.9-1.3c-0.4-0.3-0.9-0.5-1.4-0.5
			c-0.8,0-1.5,0.3-2,0.8c-0.3,0.3-0.5,0.7-0.6,1.2c-0.2,0.5-0.3,1.1-0.3,1.6c0,0.6,0,1.1,0.1,1.6c0.1,0.4,0.3,0.9,0.5,1.2
			c0.2,0.3,0.5,0.6,0.8,0.8c0.3,0.2,0.7,0.3,1,0.3c0.5,0,1-0.1,1.4-0.3c0.5-0.3,0.8-0.7,1-1.2C110,67.9,110.1,67.1,110.1,66.4
			L110.1,66.4z"/>
		<path id="Path_14" class="st3" d="M122,68.7c0,0.6-0.1,1.2-0.4,1.7c-0.3,0.5-0.8,0.9-1.3,1.2c-0.6,0.3-1.3,0.5-2,0.4
			c-0.8,0-1.6-0.2-2.3-0.6c-0.4-0.3-0.8-0.7-1.1-1.2c-0.3-0.4-0.4-0.9-0.4-1.4c0-0.2,0.1-0.5,0.2-0.7c0.2-0.2,0.4-0.3,0.6-0.3
			c0.2,0,0.4,0.1,0.5,0.2c0.2,0.2,0.3,0.4,0.4,0.6c0.1,0.3,0.2,0.6,0.4,0.8c0.1,0.2,0.4,0.4,0.6,0.6c0.3,0.2,0.7,0.2,1,0.2
			c0.5,0,1-0.1,1.4-0.4c0.3-0.3,0.5-0.7,0.5-1.1c0-0.3-0.1-0.6-0.3-0.9c-0.2-0.2-0.5-0.4-0.7-0.5c-0.4-0.1-0.8-0.3-1.2-0.4
			c-0.6-0.1-1.2-0.4-1.7-0.6c-0.4-0.2-0.8-0.6-1.1-1c-0.3-0.5-0.4-1-0.4-1.5c0-0.5,0.1-1.1,0.4-1.6c0.3-0.5,0.7-0.8,1.2-1
			c0.6-0.3,1.3-0.4,1.9-0.4c0.5,0,1,0.1,1.5,0.2c0.4,0.1,0.8,0.4,1.1,0.6c0.3,0.2,0.5,0.5,0.6,0.8c0.1,0.3,0.2,0.6,0.2,0.9
			c0,0.3-0.1,0.5-0.2,0.7c-0.1,0.2-0.4,0.3-0.6,0.3c-0.2,0-0.4-0.1-0.5-0.2c-0.2-0.2-0.3-0.4-0.4-0.6c-0.1-0.4-0.4-0.7-0.6-0.9
			c-0.3-0.3-0.8-0.4-1.2-0.3c-0.4,0-0.9,0.1-1.2,0.4c-0.3,0.2-0.5,0.5-0.5,0.9c0,0.2,0.1,0.4,0.2,0.5c0.1,0.2,0.3,0.3,0.4,0.4
			c0.2,0.1,0.4,0.2,0.6,0.3c0.2,0.1,0.5,0.2,0.9,0.3c0.5,0.1,1,0.3,1.5,0.5c0.4,0.1,0.8,0.4,1.1,0.6c0.3,0.2,0.6,0.6,0.7,0.9
			C122,67.8,122,68.3,122,68.7z"/>
	</g>
</g>
</svg>
