<?xml version="1.0" encoding="utf-8"?>
<!-- Generator: Adobe Illustrator 25.1.0, SVG Export Plug-In . SVG Version: 6.00 Build 0)  -->
<svg version="1.1" id="Layer_1" xmlns="http://www.w3.org/2000/svg" xmlns:xlink="http://www.w3.org/1999/xlink" x="0px" y="0px"
	 viewBox="0 0 95.61739 70" style="enable-background:new 0 0 95.61739 70;" xml:space="preserve">
<style type="text/css">
	.st0{fill:url(#SVGID_1_);}
	.st1{fill:#96191B;}
	.st2{fill:url(#SVGID_2_);}
	.st3{fill:url(#SVGID_3_);}
	.st4{fill:url(#SVGID_4_);}
	.st5{fill:url(#SVGID_5_);}
	.st6{fill:url(#SVGID_6_);}
	.st7{opacity:0.33;fill:#010101;enable-background:new    ;}
	.st8{fill:url(#SVGID_7_);}
	.st9{fill:#FFFFFF;}
	.st10{opacity:0.21;fill:#FFFFFF;enable-background:new    ;}
</style>
<g>
	<g id="Layer_2_1_">
		<g id="Layer_1-2">
			
				<radialGradient id="SVGID_1_" cx="36.97656" cy="49.26581" r="48.6071" gradientTransform="matrix(1 0 0 -1 0 72)" gradientUnits="userSpaceOnUse">
				<stop  offset="0.00325" style="stop-color:#E30613"/>
				<stop  offset="0.48494" style="stop-color:#D40D19"/>
				<stop  offset="0.99936" style="stop-color:#BF1622"/>
			</radialGradient>
			<path class="st0" d="M94.88205,4.79951c-0.41135-0.69411-1.02747-1.24388-1.76377-1.57383
				c-0.57336-0.27072-1.19975-0.41054-1.8338-0.40932c-2.94108,0-5.696,2.96639-6.56178,5.71475
				c-0.46963,1.21935-0.36734,2.58508,0.27868,3.72087c-1.43198,0.4714-2.79414,1.13303-4.04995,1.96713
				c-0.19766,0.13349-0.38725,0.27856-0.56778,0.43445c-0.16493-0.30855-0.34866-0.60668-0.55012-0.89272
				c-0.3424-0.54205-0.74687-1.04231-1.20521-1.49062c-0.66308-0.65092-1.43725-1.17799-2.28593-1.55631
				C76.68079,10.276,76.84393,9.72774,76.8,9.17606c-0.03545-0.46376-0.21144-0.90569-0.5045-1.26686
				c-0.83427-1.522-3.37447-2.0876-5.55968-2.08767c-3.98662-0.15455-7.76812,1.76969-9.98989,5.0834
				c-0.67545,1.09024-1.2477,2.08879-1.75483,3.03785c-0.04734-0.07361-0.09843-0.14473-0.15309-0.21308
				c-0.59892-0.96954-1.68805-1.52472-2.82449-1.43976c-1.10738,0.04718-2.19835,0.28486-3.225,0.70261
				c-2.47763,0.96192-4.61527,4.38976-6.42444,7.52724l-0.167,0.2892c-1.6463,2.82279-3.44049,5.55668-5.37509,8.19027
				c-0.31767,0.42782-0.61414,0.81587-0.89178,1.17011c1.43725-3.16741,3.5806-6.9728,5.14918-9.75719
				c0.907-1.61006,1.62345-2.88178,1.965-3.60509c0.49151-0.86472,0.48322-1.92624-0.02174-2.78318
				c-0.04841-0.0763-0.10096-0.14989-0.15742-0.22044c-0.02476-0.04512-0.04948-0.088-0.07353-0.126
				c-0.64344-0.91267-1.72907-1.40739-2.84-1.29417c-1.41399,0.03529-2.79693,0.42224-4.02392,1.12589l-0.04193,0.022
				l-0.05226,0.0327l-0.01329,0.00839c-0.1235,0.07458-0.24543,0.15373-0.363,0.23566
				c-0.14369,0.09514-0.3204,0.21459-0.51691,0.35056c1.05549-3.07306,2.03848-6.21114,2.92606-9.38951
				c0.26846-0.88672,0.09641-1.84837-0.46286-2.58699l-0.02092-0.025c-0.0629-0.11161-0.13305-0.21897-0.21-0.3214
				C40.24822,0.61757,38.33328,0,35.48108,0c-3.83846,0-9.10854,1.19543-11.75429,3.48024
				c-1.86523,1.61077-3.57679,6.20492-3.622,8.1275c-0.04652,0.6098,0.13547,1.2151,0.51055,1.69815
				c0.09792,0.18768,0.22582,0.35811,0.37867,0.50456c0.57802,0.54116,1.34234,0.83878,2.13412,0.831
				c1.17823-0.04408,2.28809-0.56458,3.07538-1.44228c0.309-0.32468,0.821-0.94655,1.52976-1.80727
				c0.52879-0.64219,1.44952-1.76016,2.38834-2.84126c-0.32844,1.13265-0.76027,2.51978-1.32518,4.20759
				c-1.27664,3.81431-2.85356,8.00368-3.74954,9.96135c-1.53304,3.39442-3.25847,6.69862-5.16789,9.8965
				c-0.15442-1.18041-0.51228-2.32513-1.05767-3.38332c-0.26665-0.54652-0.57355-1.07246-0.91816-1.57348
				c-0.51302-0.93046-1.2961-1.68352-2.2459-2.15979c-0.89112-0.34196-1.83683-0.51963-2.7913-0.52438
				C9.4055,24.97493,6.1881,27.31849,3.30312,31.9407c-2.9227,4.68263-3.91273,9.02782-2.94259,12.91485
				c0.33042,1.33766,0.90351,2.60332,1.69081,3.7341c0.8023,1.25753,1.85233,2.33846,3.08606,3.17689
				c1.80745,1.197,3.77179,2.36556,6.15819,2.36556c1.41247-0.01681,2.7927-0.42439,3.98772-1.17757
				c5.78578-3.50009,9.77446-9.045,13.10672-14.97161c0.0375,0.41091,0.11653,0.81696,0.23587,1.21194
				c0.16104,0.50917,0.40462,0.98844,0.721,1.41867c1.27298,1.86002,3.42442,2.9208,5.675,2.79807
				c1.49611,0.02288,2.96493-0.40188,4.21791-1.21975c1.03004-0.7328,1.94671-1.61309,2.72058-2.61264
				c0.0281,0.69945,0.25975,1.37549,0.66654,1.94517c0.00691,0.00905,0.015,0.01667,0.022,0.02562
				c0.06249,0.11144,0.13231,0.21862,0.209,0.32081c0.52543,0.68329,1.34537,1.07486,2.20707,1.054
				c0.58167-0.01288,1.15571-0.13514,1.69214-0.3604c0.40273-0.16364,0.78498-0.37373,1.139-0.626
				c-0.32657,0.95169-0.63766,1.87471-0.9333,2.76907l-0.51522,0.67371l0.36952-0.23094
				c-2.27615,6.93764-3.58,12.06684-3.88034,15.27487c-0.20452,2.22217,0.376,4.44576,1.64067,6.28437
				c0.26815,0.42758,0.57345,0.8307,0.91237,1.20468c1.02949,1.23888,2.5274,1.99437,4.1356,2.08583
				c0.10366,0,0.20809-0.004,0.31034-0.01191c1.81756-0.14039,2.38612-2.26978,2.60016-3.07141
				c0.33385-1.40353,0.59694-2.82295,0.78827-4.2529c0.18469-1.20149,0.37568-2.44388,0.60361-3.50248
				c0.09636-0.44759,0.20656-1.00318,0.33416-1.6465c1.30067-7.05497,3.28848-13.96577,5.935-20.63362
				c0.25856,0.96019,0.68287,1.86783,1.25379,2.682c0.65565,1.12988,1.67408,2.00487,2.88984,2.48282
				c0.69085,0.237,1.41606,0.35841,2.14643,0.35934c2.38448,0,4.74659-1.2617,7.02073-3.75
				c0.386-0.4224,0.76152-0.87357,1.12689-1.34625c0.04678,1.50853,0.50892,2.97491,1.33553,4.23767
				c0.16321,0.27562,0.35672,0.53212,0.57694,0.76473c0.47029,0.52536,1.13842,0.83073,1.84343,0.84253
				c0.6208-0.00599,1.21563-0.25003,1.66175-0.68178c1.7269-1.58906,3.84023-5.07415,6.28129-10.35848
				c1.28123-2.87317,2.41647-5.80925,3.40136-8.797c1.95311-6.005,1.81739-8.3927,1.29114-9.62513
				c2.19356-1.09857,3.81609-3.07854,4.4622-5.4452C95.80762,7.06442,95.58552,5.80164,94.88205,4.79951z"/>
			<path class="st1" d="M49.96905,43.29491l0.002-0.01026l-0.00822,0.01342L49.96905,43.29491z"/>
			<path class="st1" d="M24.95339,5.66493c-1.66417,1.43714-3.63582,6.89623-2.90739,7.58766
				c0.69209,0.65693,1.9418,0.48042,2.92535-0.55317c1.1559-1.21468,7.05818-9.00616,7.78225-7.82963
				c0.798,1.29665-4.19535,15.39487-6.06675,19.48376c-3.22738,7.05169-7.07362,13.96729-12.42721,19.68287
				c-1.21445,1.29656-6.79639,7.05767-8.48057,4.09682C4.56651,46.00155,8.8834,35.46176,13.72736,33.9585
				c1.64418-0.51025,2.24667,0.77738,3.692,0.771c2.16428-0.00954-0.56079-6.15244-2.16239-6.75612
				C11.2101,26.448,7.66955,29.23167,4.84452,33.75782C-1.30294,43.60707,3.29585,49.26305,5.969,51.03333
				c2.416,1.6,5.11631,3.14905,8.41647,1.15263c7.29995-4.41607,11.64227-12.3725,15.35691-19.7136
				c4.37164-8.81849,7.88966-18.03496,10.506-27.52347C41.28423,1.2396,28.97448,2.19241,24.95339,5.66493z"/>
			<path class="st1" d="M79.74518,18.89218c-0.34412-3.81793-3.30637-6.32262-6.27683-6.204
				c-2.84209,0.1135-5.69573,2.51736-8.00082,5.7016c1.19842-2.2175,2.8657-4.14719,4.8858-5.65474
				c1.55319-1.10054,4.86705-1.65395,4.77415-2.81539c-0.14959-1.87021-9.229-3.02632-12.8373,2.79782
				c-3.176,5.12636-4.0341,8.12487-6.29651,13.62486C53.70055,31.917,45.51046,53.054,44.7163,61.53688
				c-0.39451,4.214,2.64845,7.63827,5.034,7.454c1.42418-0.11,1.71523-5.74274,2.53609-9.5552
				c0.86355-4.01066,2.94663-17.3353,10.20965-30.73877c2.11113-3.896,6.84531-10.96072,10.99342-11.324
				c2.887-0.25284,1.57809,7.76447-5.3025,17.468c-0.88771,1.48321-2.62918,2.22656-4.31433,1.84159
				c-1.00009-0.17279-1.29318-2.02676-1.63934-1.79688c-1.2895,0.85637,0.11187,5.4076,2.568,6.24478
				C72.7283,43.83252,80.3627,25.74334,79.74518,18.89218z M49.96905,43.29491l-0.00618,0.00316l0.00822-0.01342L49.96905,43.29491z
				"/>
			<path class="st1" d="M52.91867,31.66093c0.08986-0.73122-4.06045,2.34024-3.6696,0.47919
				c0.591-2.81413,4.17109-8.23455,6.631-12.21873c0.8642-1.39966,1.87292-2.85945,1.87038-3.76349
				c-0.00543-1.94278-2.74377-1.26524-4.20695-0.69717c-2.26047,0.87763-4.64187,5.15757-5.7773,7.11924
				C44.74531,27.79919,38.76683,36.509,36.72447,36.272c-0.94407-0.10957,0.055-2.57752,1.6403-6.08581
				c2.27762-5.04032,6.267-11.5706,7.15681-13.4548c1.09373-2.31607-2.519-2.09586-4.64454-0.844l-0.01516,0.00767l-0.02332,0.01473
				c-0.10484,0.06288-0.20549,0.12826-0.30195,0.19613c-1.60556,1.02277-3.06574,2.25755-4.341,3.67091
				c-1.66569,2.09491-0.5578,2.14873-0.5578,2.14873s0.41887,0.10647,1.37641-0.754c-3.4,5.646-7.90749,14.56223-6.67543,18.50183
				c0.91236,2.91724,5.483,3.47576,7.92529,1.8c2.78623-1.91174,4.24287-5.47886,6.62991-7.784
				c0.78336-0.33647-3.80081,9.94652,1.21275,7.98412C48.86455,40.59417,52.61968,34.0937,52.91867,31.66093z"/>
			<path class="st1" d="M88.38121,14.20345c-2.28358,0.21939-4.47331,1.01829-6.36165,2.321
				c-2.0185,1.34873-1.90027,3.29474-1.15818,3.62864c0.465,0.20926,1.94885-2.48293,2.69738-2.02528
				c0.32637,0.29935-1.0655,4.438-2.6015,8.55126c-0.54757,1.46631-1.60531,3.77732-2.99555,6.73337
				c-0.82454,1.43213-1.34866,3.01724-1.54039,4.65861c-0.05565,1.741,1.18085,5.01732,2.47528,3.8262
				c1.91672-1.76372,4.24978-6.25639,5.90835-9.8468C86.09183,29.26469,92.36528,14.10666,88.38121,14.20345z"/>
			<path class="st1" d="M92.60008,5.64969c-3.55942-1.67452-8.155,5.363-5.66525,7.10442
				C90.60987,15.32462,96.63369,7.54709,92.60008,5.64969z"/>
			
				<radialGradient id="SVGID_2_" cx="31.73962" cy="58.93771" r="94.50776" gradientTransform="matrix(1 0 0 -1 0 72)" gradientUnits="userSpaceOnUse">
				<stop  offset="0" style="stop-color:#FDEB11"/>
				<stop  offset="0.37813" style="stop-color:#FDE60E"/>
				<stop  offset="0.81279" style="stop-color:#FED805"/>
				<stop  offset="1" style="stop-color:#FFD000"/>
			</radialGradient>
			<path class="st2" d="M24.4755,4.54985c-1.66417,1.43714-3.63582,6.89624-2.90739,7.58767
				c0.6921,0.65693,1.9418,0.48042,2.92535-0.55317c1.1559-1.21469,7.05818-9.00617,7.78225-7.82964
				c0.798,1.29666-4.19535,15.39488-6.06675,19.48376c-3.22738,7.05169-7.07362,13.9673-12.4272,19.68288
				c-1.21446,1.29656-6.7964,7.05767-8.48058,4.09682c-1.21256-2.13169,3.10434-12.67149,7.94829-14.17474
				c1.64418-0.51025,2.24667,0.77738,3.692,0.771c2.16427-0.00953-0.5608-6.15244-2.1624-6.75612
				c-4.0469-1.52541-7.58745,1.25829-10.41247,5.78444C-1.78083,42.492,2.818,48.148,5.49114,49.91825
				c2.416,1.6,5.11631,3.14906,8.41647,1.15264c7.3-4.41607,11.64227-12.3725,15.35691-19.7136
				c4.37163-8.8185,7.88964-18.03497,10.50598-27.52347C40.80635,0.12453,28.49659,1.07734,24.4755,4.54985z"/>
			
				<radialGradient id="SVGID_3_" cx="31.73962" cy="58.93771" r="94.50776" gradientTransform="matrix(1 0 0 -1 0 72)" gradientUnits="userSpaceOnUse">
				<stop  offset="0" style="stop-color:#FDEB11"/>
				<stop  offset="0.37813" style="stop-color:#FDE60E"/>
				<stop  offset="0.81279" style="stop-color:#FED805"/>
				<stop  offset="1" style="stop-color:#FFD000"/>
			</radialGradient>
			<path class="st3" d="M79.26729,17.77711c-0.34412-3.81794-3.30637-6.32263-6.27683-6.204
				c-2.84209,0.11349-5.69573,2.51736-8.00082,5.7016c1.19842-2.21749,2.86571-4.14717,4.8858-5.65471
				c1.5532-1.10054,4.86705-1.65395,4.77415-2.8154c-0.14959-1.8702-9.229-3.02631-12.8373,2.79782
				c-3.176,5.12637-4.03409,8.12487-6.29651,13.62486C53.22266,30.8019,45.03257,51.939,44.23842,60.42181
				c-0.39452,4.214,2.64844,7.63827,5.03394,7.454c1.42418-0.11,1.71523-5.74273,2.53609-9.5552
				C52.672,54.31,54.75509,40.98533,62.0181,27.58186c2.11113-3.896,6.84531-10.96071,10.99342-11.324
				c2.887-0.25284,1.57809,7.76447-5.30249,17.468c-0.88773,1.48319-2.62919,2.22654-4.31434,1.84159
				c-1.00009-0.1728-1.29318-2.02676-1.63934-1.79688c-1.2895,0.85637,0.11187,5.4076,2.568,6.24477
				C72.25041,42.71745,79.88481,24.62827,79.26729,17.77711z M49.49116,42.17984L49.485,42.183l0.00822-0.01342L49.49116,42.17984z"
				/>
			
				<radialGradient id="SVGID_4_" cx="31.73962" cy="58.93771" r="94.50776" gradientTransform="matrix(1 0 0 -1 0 72)" gradientUnits="userSpaceOnUse">
				<stop  offset="0" style="stop-color:#FDEB11"/>
				<stop  offset="0.37813" style="stop-color:#FDE60E"/>
				<stop  offset="0.81279" style="stop-color:#FED805"/>
				<stop  offset="1" style="stop-color:#FFD000"/>
			</radialGradient>
			<path class="st4" d="M52.44078,30.54585c0.08986-0.73122-4.06045,2.34025-3.66959,0.47919
				c0.591-2.81412,4.17108-8.23455,6.631-12.21872c0.8642-1.39967,1.87292-2.85945,1.87038-3.76349
				c-0.00543-1.94278-2.74377-1.26524-4.20694-0.69717c-2.26048,0.87762-4.64188,5.15757-5.7773,7.11924
				c-3.02091,5.21921-8.99939,13.9291-11.04175,13.6921c-0.94407-0.10956,0.055-2.57751,1.6403-6.0858
				c2.27763-5.04033,6.267-11.5706,7.15681-13.4548c1.09373-2.31607-2.519-2.09586-4.64454-0.844L40.384,14.78l-0.02332,0.01473
				c-0.10484,0.06288-0.20549,0.12826-0.30195,0.19613c-1.60556,1.02277-3.06574,2.25754-4.341,3.6709
				c-1.66569,2.09492-0.5578,2.14873-0.5578,2.14873s0.41887,0.10648,1.37641-0.754c-3.4,5.646-7.90749,14.56223-6.67542,18.50183
				c0.91235,2.91724,5.483,3.47575,7.92528,1.80005c2.78623-1.91174,4.24288-5.47886,6.62991-7.784
				c0.78336-0.33647-3.80081,9.94651,1.21275,7.98412C48.38666,39.4791,52.14179,32.97862,52.44078,30.54585z"/>
			
				<radialGradient id="SVGID_5_" cx="31.73962" cy="58.93771" r="94.50776" gradientTransform="matrix(1 0 0 -1 0 72)" gradientUnits="userSpaceOnUse">
				<stop  offset="0" style="stop-color:#FDEB11"/>
				<stop  offset="0.37813" style="stop-color:#FDE60E"/>
				<stop  offset="0.81279" style="stop-color:#FED805"/>
				<stop  offset="1" style="stop-color:#FFD000"/>
			</radialGradient>
			<path class="st5" d="M87.90332,13.08838c-2.28358,0.21938-4.47331,1.01829-6.36165,2.321
				c-2.0185,1.34873-1.90027,3.29473-1.15817,3.62864c0.465,0.20926,1.94884-2.48293,2.69737-2.02528
				c0.32637,0.29934-1.0655,4.438-2.6015,8.55126c-0.54757,1.46631-1.60531,3.77731-2.99555,6.73337
				c-0.82454,1.43213-1.34866,3.01723-1.54039,4.6586c-0.05565,1.741,1.18085,5.01733,2.47528,3.8262
				c1.91672-1.76372,4.24979-6.25639,5.90835-9.84679C85.61394,28.14961,91.88739,12.99159,87.90332,13.08838z"/>
			
				<radialGradient id="SVGID_6_" cx="31.73962" cy="58.93771" r="94.50776" gradientTransform="matrix(1 0 0 -1 0 72)" gradientUnits="userSpaceOnUse">
				<stop  offset="0" style="stop-color:#FDEB11"/>
				<stop  offset="0.37813" style="stop-color:#FDE60E"/>
				<stop  offset="0.81279" style="stop-color:#FED805"/>
				<stop  offset="1" style="stop-color:#FFD000"/>
			</radialGradient>
			<path class="st6" d="M92.12219,4.53462c-3.55942-1.67452-8.155,5.363-5.66525,7.10441
				C90.132,14.20954,96.1558,6.432,92.12219,4.53462z"/>
			<path class="st7" d="M45.28977,50.374c0,0-0.25982,0.80834-1.06816,3.49317c3.51467-1.07557,7.29559-0.88142,10.68159,0.54851
				c0,0,0.7506-3.57977,0.8372-3.57977S45.28977,50.374,45.28977,50.374z"/>
			
				<radialGradient id="SVGID_7_" cx="46.85294" cy="22.61624" r="18.51724" gradientTransform="matrix(1 0 0 -1 0 72)" gradientUnits="userSpaceOnUse">
				<stop  offset="0" style="stop-color:#E3BD37"/>
				<stop  offset="0.36769" style="stop-color:#D8B328"/>
				<stop  offset="1" style="stop-color:#C09C05"/>
			</radialGradient>
			<path class="st8" d="M27.063,44.99262c-1.53169,0.34758-2.87812,1.2552-3.77493,2.54463
				c-3.36466,5.33414-0.421,9.04752-0.421,9.04752c0.10415-0.7406,0.57063-1.38054,1.24382-1.70634
				c4.36772-2.95874,17.68424-3.29318,26.82114-2.81758c2.63881,0.13736,13.36317,2.07108,17.76639-0.02508
				c2.86521-1.364,4.40494-6.93809,2.47153-9.853c-0.27089,1.62456-3.595,2.28935-5.7362,2.18457
				c-8.32656-0.40748-15.06315-1.07994-20.68952-1.0325C35.352,43.41405,29.6239,44.24153,27.063,44.99262z"/>
			<path class="st9" d="M30.64851,50.29466l-0.3046-0.523l-1.63278,0.32777l-0.07623,0.61245
				c-0.01406,0.16724-0.04779,0.33224-0.10049,0.49158c-0.0437,0.09404-0.13338,0.1584-0.23646,0.16971
				c-0.10439,0.01996-0.21232-0.00575-0.2965-0.07062c-0.09038-0.06025-0.15324-0.15381-0.17485-0.26026
				c-0.01253-0.06411-0.01619-0.12965-0.01089-0.19476c0.00529-0.0686,0.01722-0.1652,0.03578-0.28981l0.44149-3.11157
				l0.0448-0.3217c0.01357-0.10817,0.03795-0.2147,0.0728-0.318c0.03008-0.08535,0.07998-0.16234,0.14561-0.22464
				c0.07474-0.06719,0.16715-0.11156,0.26632-0.12787c0.09872-0.02364,0.20213-0.01856,0.29806,0.01462
				c0.084,0.03165,0.15959,0.08222,0.2209,0.14779c0.06269,0.06723,0.11846,0.1406,0.16645,0.219
				c0.04947,0.08012,0.11347,0.1874,0.192,0.32186l1.63155,2.67661c0.09657,0.13901,0.1708,0.29228,0.22,0.45424
				c0.02025,0.10666-0.00089,0.21702-0.05911,0.30864c-0.05298,0.09687-0.1464,0.16507-0.25481,0.186
				c-0.05683,0.01312-0.11609,0.0114-0.17206-0.005c-0.05072-0.01651-0.09716-0.04403-0.136-0.08059
				c-0.05348-0.05504-0.10065-0.11588-0.14063-0.18138C30.73501,50.43245,30.68823,50.35875,30.64851,50.29466z M28.78766,49.37591
				l1.1997-0.241l-0.97755-1.72488L28.78766,49.37591z"/>
			<path class="st9" d="M32.84816,46.3219l0.46576,3.28922l1.66576-0.23459c0.11139-0.02328,0.22746,0.00016,0.32108,0.06487
				c0.08126,0.06205,0.13364,0.1546,0.145,0.25621c0.01833,0.10006-0.00604,0.20323-0.06721,0.28452
				c-0.07386,0.08596-0.17908,0.13874-0.29214,0.14654l-1.984,0.27924c-0.13999,0.03362-0.28768,0.00509-0.40508-0.07825
				c-0.10659-0.1116-0.16973-0.25766-0.178-0.41177l-0.49313-3.4801c-0.03182-0.14586-0.01305-0.29821,0.0532-0.432
				c0.05777-0.10039,0.15989-0.16729,0.275-0.18015c0.11556-0.0197,0.23372,0.01536,0.31983,0.0949
				C32.77691,46.03017,32.83838,46.17202,32.84816,46.3219z"/>
			<path class="st9" d="M36.43575,49.49538L36.082,45.91712c-0.02583-0.14724-0.00024-0.29889,0.07249-0.4295
				c0.06188-0.09724,0.16602-0.15957,0.28095-0.16817c0.11628-0.01494,0.23288,0.02508,0.31548,0.10827
				c0.0981,0.11386,0.15363,0.25825,0.15712,0.40851l0.35375,3.57825c0.02617,0.14829,0.00011,0.30107-0.07374,0.43231
				c-0.06404,0.09844-0.17062,0.16106-0.28779,0.1691c-0.11441,0.01316-0.22834-0.02841-0.30739-0.11216
				C36.49525,49.78964,36.43978,49.64548,36.43575,49.49538z"/>
			<path class="st9" d="M39.98724,49.0136L39.202,46.13771l0.14,3.147c0.01628,0.13816-0.0144,0.27777-0.08712,0.39637
				c-0.1188,0.15818-0.34334,0.19011-0.50153,0.07131c-0.0181-0.0136-0.03488-0.02888-0.05009-0.04564
				c-0.0844-0.11169-0.1279-0.24899-0.12321-0.38891L38.4192,45.7105c-0.02587-0.14782,0.01918-0.2992,0.12165-0.40882
				c0.10767-0.0795,0.23828-0.12182,0.37211-0.12056l0.25668-0.0112c0.11395-0.01127,0.22899-0.00041,0.33881,0.032
				c0.07337,0.03014,0.13177,0.08816,0.16241,0.16132c0.05346,0.12652,0.09765,0.25676,0.13223,0.38969l0.70563,2.47142
				l0.48349-2.52323c0.02275-0.13539,0.05508-0.26899,0.09676-0.39979c0.02428-0.07543,0.07724-0.13829,0.14747-0.175
				c0.10655-0.04158,0.22009-0.06233,0.33446-0.06114l0.25668-0.0112c0.1334-0.01289,0.26737,0.01791,0.38175,0.08774
				c0.1118,0.10023,0.17019,0.24706,0.15774,0.39669l0.16054,3.60734c0.01641,0.13821-0.01427,0.27792-0.08711,0.39653
				c-0.06355,0.08883-0.16579,0.14186-0.275,0.14265c-0.10588,0.00644-0.20856-0.03758-0.2769-0.1187
				c-0.08386-0.11134-0.12741-0.24786-0.12352-0.38719l-0.13969-3.14719l-0.52705,2.93329
				c-0.03422,0.19041-0.06284,0.33031-0.08587,0.41971c-0.02509,0.09265-0.07277,0.17764-0.13876,0.24734
				c-0.07808,0.07957-0.18534,0.1237-0.29681,0.12212c-0.08711,0.00661-0.17411-0.01411-0.2489-0.05927
				c-0.06804-0.04286-0.12439-0.10192-0.164-0.1719c-0.04225-0.07486-0.07548-0.15447-0.099-0.23715
				C40.0395,49.19889,40.01358,49.10809,39.98724,49.0136z"/>
			<path class="st9" d="M46.59306,45.839l-1.86893-0.06082l-0.03547,1.12l1.72083,0.056
				c0.10371-0.00468,0.20488,0.03293,0.28033,0.10423c0.06181,0.06939,0.0928,0.1609,0.08587,0.25357
				c0.00074,0.09345-0.03537,0.18343-0.1005,0.25045c-0.07934,0.06866-0.18388,0.10083-0.2881,0.08867l-1.72052-0.0561
				l-0.04138,1.29724l1.93271,0.06332c0.10834-0.00457,0.21381,0.03546,0.29184,0.11076
				c0.06581,0.07471,0.09838,0.173,0.09022,0.27223c0.0012,0.09758-0.03759,0.19139-0.10734,0.25963
				c-0.08261,0.07003-0.19032,0.10314-0.298,0.09163l-2.25411-0.074c-0.14352,0.00925-0.28402-0.04414-0.38517-0.14638
				c-0.08618-0.12816-0.12339-0.28303-0.10485-0.43635l0.10889-3.42845c-0.00021-0.11084,0.02125-0.22065,0.06316-0.32326
				c0.03371-0.07835,0.0949-0.14165,0.17206-0.178c0.0918-0.03881,0.19149-0.05533,0.2909-0.04823l2.19,0.07172
				c0.10775-0.00532,0.21301,0.0335,0.29152,0.10749c0.06359,0.07102,0.0955,0.16489,0.08836,0.25995
				c0.00125,0.09612-0.03646,0.18865-0.10454,0.25652C46.80773,45.81954,46.70019,45.85139,46.59306,45.839z"/>
			<path class="st9" d="M49.45666,45.84059l1.3145,2.839l0.27566-2.7001c0.00417-0.14011,0.05386-0.27505,0.14156-0.3844
				c0.07316-0.07938,0.18053-0.11795,0.28748-0.10329c0.1099,0.00684,0.2096,0.06673,0.26726,0.16054
				c0.06479,0.12454,0.08687,0.26692,0.06284,0.40524l-0.36464,3.57016c-0.04075,0.3984-0.20938,0.58238-0.50589,0.55194
				c-0.06857-0.00597-0.13534-0.02515-0.19663-0.05647c-0.05998-0.03243-0.11279-0.07665-0.15525-0.13
				c-0.0489-0.0607-0.09124-0.1264-0.12632-0.196c-0.03733-0.07389-0.07435-0.149-0.11169-0.22588l-1.27872-2.80386
				l-0.27131,2.65966c-0.00432,0.14068-0.05682,0.2756-0.14871,0.38221c-0.1403,0.14106-0.36839,0.14169-0.50945,0.00139
				c-0.01849-0.01839-0.03492-0.03872-0.04902-0.06066c-0.06604-0.12311-0.08914-0.26472-0.06565-0.40244l0.35748-3.50218
				c0.00792-0.11862,0.03493-0.23518,0.08-0.34519c0.04372-0.08823,0.113-0.16125,0.19881-0.20955
				c0.08206-0.04935,0.1779-0.07079,0.27317-0.06113c0.06597,0.00507,0.12982,0.02563,0.18636,0.06
				c0.05005,0.03234,0.09345,0.07395,0.12787,0.12259c0.04055,0.05973,0.07544,0.12311,0.10423,0.18932
				C49.38481,45.67788,49.42016,45.75757,49.45666,45.84059z"/>
			<path class="st9" d="M55.67823,46.69463l-0.90258-0.07312L54.51182,49.926c-0.00035,0.15094-0.05265,0.29717-0.1481,0.4141
				c-0.07843,0.08406-0.1918,0.12641-0.30614,0.11434c-0.1166-0.00619-0.22348-0.06696-0.28842-0.164
				c-0.0763-0.12996-0.10522-0.28234-0.08182-0.43122l0.26352-3.30446L53.0486,46.482
				c-0.11554-0.00012-0.22614-0.04684-0.30677-0.12958c-0.0643-0.07935-0.09351-0.18146-0.08089-0.28281
				c0.00298-0.10441,0.05-0.20269,0.12942-0.27053c0.09207-0.06655,0.20658-0.09431,0.31891-0.07731l2.62994,0.21265
				c0.11693,0,0.22886,0.04743,0.31019,0.13145c0.06533,0.07948,0.09534,0.18222,0.08307,0.28437
				c-0.0038,0.1027-0.05025,0.19917-0.12818,0.26617C55.91028,46.6847,55.79299,46.71284,55.67823,46.69463z"/>
			<path class="st9" d="M58.67032,46.03426c0.38477,0.00908,0.75889,0.12822,1.07805,0.34333
				c0.29818,0.21177,0.52487,0.50927,0.64994,0.85295c0.14457,0.4024,0.20316,0.83065,0.172,1.2571
				c-0.01247,0.32479-0.07178,0.64607-0.17609,0.95391c-0.09156,0.2687-0.23524,0.51669-0.42282,0.72975
				c-0.1794,0.20074-0.404,0.35591-0.65523,0.45268c-0.56186,0.19732-1.179,0.16416-1.71648-0.09224
				c-0.24114-0.12255-0.44988-0.30039-0.60918-0.519c-0.1655-0.23288-0.28311-0.49631-0.346-0.775
				c-0.07327-0.31477-0.10093-0.63844-0.08213-0.96107c0.01292-0.32632,0.0749-0.64885,0.18387-0.95671
				c0.09325-0.26829,0.23936-0.51516,0.42967-0.726c0.17903-0.19497,0.40117-0.34536,0.64869-0.43916
				C58.09489,46.0556,58.38307,46.01453,58.67032,46.03426z M59.73064,48.43833c0.02144-0.29538-0.01308-0.59216-0.10174-0.87473
				c-0.0688-0.2262-0.20355-0.42673-0.387-0.57589c-0.17473-0.13514-0.38749-0.21198-0.60825-0.21966
				c-0.3233-0.02065-0.63684,0.11523-0.84284,0.36526c-0.11854,0.14737-0.20855,0.31556-0.26539,0.49594
				c-0.07246,0.2234-0.11381,0.4557-0.12289,0.69038c-0.01448,0.23705,0.00342,0.47497,0.0532,0.70719
				c0.0386,0.19053,0.11406,0.37169,0.22214,0.53327c0.09105,0.13488,0.21173,0.24715,0.35282,0.32824
				c0.1387,0.07632,0.29325,0.11935,0.45144,0.12569c0.2082,0.01186,0.41513-0.03949,0.59363-0.14731
				c0.19901-0.12683,0.35616-0.30958,0.45175-0.52534C59.65494,49.05698,59.72401,48.7499,59.73064,48.43833z"/>
			<path class="st9" d="M64.82469,49.43471c0.00449,0.26061-0.06139,0.5176-0.19072,0.7439
				c-0.13158,0.22375-0.32659,0.40343-0.56033,0.51631c-0.27258,0.13042-0.5722,0.19434-0.87427,0.18652
				c-0.35141,0.01375-0.69921-0.07518-1.00089-0.2559c-0.18858-0.12461-0.34438-0.2928-0.45424-0.49033
				c-0.10943-0.18007-0.16982-0.38563-0.17516-0.59627c-0.0022-0.10566,0.0352-0.20832,0.10485-0.2878
				c0.06625-0.07829,0.16441-0.12233,0.26694-0.11978c0.0839-0.00143,0.16452,0.0325,0.22215,0.09349
				c0.07069,0.08045,0.1236,0.17492,0.15525,0.27722c0.04351,0.12693,0.10014,0.24898,0.16894,0.36417
				c0.06373,0.10065,0.15179,0.18363,0.25605,0.24128c0.13361,0.0689,0.2829,0.10172,0.43309,0.0952
				c0.21626,0.01007,0.42896-0.05769,0.59954-0.191c0.14741-0.11433,0.23264-0.29119,0.23023-0.47773
				c0.00605-0.13428-0.03846-0.26595-0.12476-0.369c-0.08743-0.09763-0.19777-0.17199-0.32108-0.21639
				c-0.17272-0.06237-0.34863-0.11549-0.527-0.15914c-0.25561-0.06255-0.5036-0.1529-0.73954-0.26943
				c-0.19132-0.0967-0.35411-0.24163-0.47229-0.42049c-0.12238-0.19841-0.18322-0.42863-0.17485-0.6616
				c-0.00435-0.23611,0.05961-0.46845,0.18418-0.66908c0.1287-0.19986,0.31449-0.35644,0.53327-0.44942
				c0.25965-0.11003,0.53975-0.16355,0.82168-0.157c0.22211-0.00479,0.44325,0.03063,0.65275,0.10454
				c0.16937,0.06084,0.32478,0.15511,0.457,0.27721c0.11162,0.10235,0.202,0.22567,0.266,0.36293
				c0.05323,0.11629,0.08183,0.24235,0.084,0.37023c0.00042,0.10823-0.03662,0.21327-0.10484,0.29729
				c-0.06074,0.08359-0.15803,0.13281-0.26135,0.13222c-0.0803,0.00554-0.15916-0.02337-0.21685-0.07949
				c-0.06561-0.07862-0.11967-0.16621-0.16055-0.2601c-0.06075-0.15151-0.15228-0.28876-0.26881-0.40306
				c-0.14375-0.10914-0.32298-0.16088-0.50278-0.14514c-0.18571-0.00889-0.3688,0.04661-0.51833,0.15712
				c-0.12243,0.08715-0.19567,0.22772-0.19694,0.378c-0.00212,0.08387,0.0212,0.16641,0.06689,0.23677
				c0.04861,0.06964,0.11164,0.128,0.18481,0.17112c0.07471,0.04614,0.15433,0.08381,0.23739,0.11231
				c0.08027,0.02692,0.2126,0.06638,0.397,0.11839c0.21294,0.05442,0.42257,0.12106,0.62785,0.19958
				c0.17154,0.06408,0.3326,0.15331,0.47789,0.26477c0.13219,0.10513,0.23763,0.24005,0.3077,0.39373
				C64.79329,49.03515,64.83087,49.2344,64.82469,49.43471z"/>
			<path class="st10" d="M71.16543,42.7312c0,0,0.79648,3.38505-3.18593,4.57977s-32.17783-2.947-43.80645,2.30979
				c-1.19472,0.239-1.86563-2.81406,3.74346-4.53994c5.69484-1.75226,17.80135-1.47349,23.25725-1.23455
				C59.21209,44.19832,69.93088,46.47466,71.16543,42.7312z"/>
		</g>
	</g>
</g>
</svg>
