<?xml version="1.0" encoding="utf-8"?>
<!-- Generator: Adobe Illustrator 24.3.0, SVG Export Plug-In . SVG Version: 6.00 Build 0)  -->
<svg version="1.1" id="Layer_1" xmlns="http://www.w3.org/2000/svg" xmlns:xlink="http://www.w3.org/1999/xlink" x="0px" y="0px"
	 viewBox="0 0 926 536" style="enable-background:new 0 0 926 536;" xml:space="preserve">
<style type="text/css">
	.st0{fill:url(#SVGID_1_);}
	.st1{fill:#831518;}
	.st2{fill:url(#SVGID_2_);}
	.st3{fill:#921924;}
	.st4{fill:#B99A2A;}
	.st5{fill:#FDEA90;}
	.st6{fill:url(#SVGID_3_);}
	.st7{fill:url(#SVGID_4_);}
	.st8{fill:url(#SVGID_5_);}
	.st9{fill:url(#SVGID_6_);}
	.st10{fill:url(#SVGID_7_);}
	.st11{fill:url(#SVGID_8_);}
	.st12{opacity:0.33;}
	.st13{fill:url(#SVGID_9_);}
	.st14{fill:#FFFFFF;}
	.st15{opacity:0.21;fill:#FFFFFF;}
</style>
<g>
	<radialGradient id="SVGID_1_" cx="816.42389" cy="334.67166" r="154.74687" gradientUnits="userSpaceOnUse">
		<stop  offset="0.00325" style="stop-color:#E83027"/>
		<stop  offset="0.4369" style="stop-color:#D62B2A"/>
		<stop  offset="0.99936" style="stop-color:#BC242E"/>
	</radialGradient>
	<path class="st0" d="M771.2533,134.754c-85.46448,0-154.74695,69.28268-154.74695,154.74692
		c0,38.19882,13.86871,73.14047,36.80865,100.13266l-29.97858,48.21106l58.23303-22.27478
		c25.30505,18.03448,56.24213,28.67801,89.68384,28.67801c85.46423,0,154.7467-69.28268,154.7467-154.74695
		S856.71753,134.754,771.2533,134.754z"/>
	<g>
		<g>
			<path class="st1" d="M724.31531,38.36875c-2.92188-5.06152-7.45734-9.18212-13.44873-12.00046
				c-4.40186-2.07089-9.10645-3.12101-13.98267-3.12101c-22.42572,0-43.43195,22.61867-50.03345,43.5749
				c-3.47583,11.03374-2.62048,21.06209,2.12494,28.37152c-9.88745,3.24902-20.69196,8.19134-30.88086,14.99937
				c-1.45331,0.97112-2.90582,2.09367-4.32935,3.31264c-1.26392-2.35959-2.66174-4.63448-4.19464-6.80695
				c-2.62445-4.1377-5.69427-7.95928-9.18964-11.36598c-5.22333-5.09075-11.12793-9.08292-17.43024-11.86685
				c3.14423-4.21229,3.75256-8.43414,3.48926-11.72605c-0.29871-3.73431-1.67523-6.93561-3.84674-9.65978
				c-6.36133-11.60524-25.73035-15.91792-42.39246-15.91846c-32.65973-0.00107-61.1355,14.48903-76.17279,38.7608
				c-5.15033,8.31312-9.51373,15.92706-13.38055,23.16361c-0.35965-0.56493-0.75378-1.10268-1.1673-1.62473
				c-3.82791-6.89068-11.45959-10.97807-21.53671-10.97817c-9.3898,0-19.43738,3.3565-24.59079,5.35742
				c-18.89191,7.33458-35.19138,33.47184-48.98627,57.39504l-1.27304,2.20514
				c-11.7482,20.29735-27.45267,44.22701-40.98477,62.45065c-2.42224,3.26215-4.68283,6.22105-6.79984,8.92213
				c10.95905-24.1515,27.30206-53.16751,39.26242-74.39845c6.91617-12.27669,12.37881-21.97356,14.98334-27.48877
				c4.93439-10.44924,2.01416-17.78114-0.16574-21.2217c-0.34921-0.55106-0.74829-1.11525-1.20038-1.68083
				c-0.18872-0.34406-0.37726-0.67123-0.56064-0.96069c-2.85208-4.5011-8.92404-9.86691-21.65485-9.86798
				c-9.82199-0.00075-21.54211,3.28299-30.68231,8.58484l-0.31976,0.168l-0.39847,0.24936l-0.10135,0.06396
				c-0.94165,0.5687-1.8714,1.17222-2.76813,1.79691c-1.0957,0.7254-2.44312,1.63622-3.94144,2.67301
				c8.04807-23.432,15.54333-47.35983,22.31116-71.59484c1.98468-7.10715,0.73123-14.11273-3.52954-19.72628
				c-0.04987-0.06567-0.10889-0.12576-0.15952-0.19089c-0.47928-0.83999-1.00293-1.66202-1.6015-2.45063
				c-7.0488-9.28703-21.65015-13.996-43.39807-13.996c-29.26828,0-69.45248,9.11516-89.62633,26.53678
				c-14.22237,12.28206-27.27295,47.31242-27.61775,61.97203c-0.12672,5.39074,1.18555,9.73416,3.89296,12.94836
				c0.76389,1.44115,1.71512,2.7346,2.88733,3.84727c4.30505,4.08643,10.08414,6.33671,16.27261,6.33671
				c8.25186,0,16.79907-4.00839,23.44974-10.99742c2.35583-2.47567,6.26041-7.21743,11.66437-13.78039
				c4.03203-4.89664,11.05255-13.42117,18.21107-21.66454c-2.50436,8.63643-5.79703,19.21326-10.10445,32.08283
				c-9.73438,29.08403-21.75836,61.02789-28.59026,75.95514c-13.9846,30.55569-27.20865,55.26923-39.40506,75.46028
				c-0.83116-9.63701-5.1203-19.80421-8.06471-25.79773c-1.64192-3.34221-4.02957-7.73442-7.00096-11.99777
				c-4.33116-6.79169-10.22923-13.86917-17.12496-16.46834c-7.03782-2.6528-14.19861-3.99808-21.28362-3.9984
				c-26.38598-0.00139-50.91861,17.86821-72.91656,53.11247C3.74186,281.0249-3.80705,314.15686,3.5902,343.79541
				c2.89303,11.59137,7.67843,20.98526,12.89247,28.47247c8.3675,13.0253,18.34404,20.78864,23.5311,24.22372
				c13.78179,9.12677,28.75987,18.03738,46.95612,18.03738c10.32736,0,20.55746-3.02094,30.4063-8.97897
				c44.1165-26.68811,74.53011-68.96796,99.93852-114.15833c0.3318,3.30835,0.91125,6.4039,1.79852,9.24103
				c1.23145,3.93768,3.11488,7.5473,5.49738,10.81738c8.00345,13.18246,24.04251,21.33521,43.27168,21.33521
				c11.99841,0,23.42029-3.30298,32.1615-9.30057c8.13159-5.57947,14.7774-12.51102,20.74438-19.92136
				c0.45273,5.75296,1.98706,10.77148,5.08237,14.83191c0.05267,0.069,0.11447,0.12714,0.16779,0.1954
				c0.4826,0.84534,1.00055,1.66867,1.59323,2.44611c3.95068,5.18256,9.92731,8.03665,16.82883,8.03665
				c3.95789,0,8.17822-0.89886,12.90259-2.74802c2.46512-0.96487,5.38019-2.47665,8.68491-4.77359
				c-2.49008,7.25668-4.86557,14.30115-7.11639,21.11414l-3.92853,5.13708l2.81757-1.76093
				c-17.35562,52.89932-27.29755,92.00946-29.58749,116.47061c-1.59259,17.0105,3.03729,34.35526,12.51004,47.91821
				c2.06036,3.26794,4.37695,6.35303,6.95679,9.18567c9.20554,10.10767,20.69943,15.90479,31.53445,15.90479
				c0.79044,0,1.58667-0.03052,2.36636-0.09082c13.85886-1.07043,18.19409-17.30701,19.82614-23.41943
				c2.41718-9.0527,4.16263-20.40717,6.01059-32.42825c1.40826-9.16141,2.86453-18.63458,4.60245-26.70639
				c0.73477-3.41284,1.57507-7.6492,2.548-12.55453c5.89935-29.74356,17.90475-90.2276,45.25412-157.33102
				c1.8656,6.97076,5.12054,14.18002,9.56015,20.44998c5.43427,8.59848,12.95309,15.83603,22.03513,18.93176
				c5.33368,1.81808,10.84018,2.73999,16.36646,2.73999c18.18164,0,36.19269-9.62045,53.53296-28.59402
				c2.94354-3.22076,5.80658-6.66098,8.59259-10.26514c0.16742,9.92999,3.86823,23.61246,10.18329,32.31219
				c1.32904,2.1958,2.79742,4.17715,4.39923,5.83099c5.14264,5.30972,10.48224,6.42432,14.05609,6.42432
				c3.20312,0,8.00153-0.90201,12.67084-5.19855c13.1676-12.11655,29.28168-38.69031,47.89478-78.98328
				c5.38104-11.64867,17.1806-40.16014,25.9353-67.07719c14.8924-45.78809,13.85754-63.99423,9.84485-73.39143
				c16.66504-7.97626,30.43304-25.44775,34.02429-41.51916C731.21576,54.458,729.4856,45.32155,724.31531,38.36875z"/>
			<radialGradient id="SVGID_2_" cx="281.94565" cy="173.82642" r="370.62839" gradientUnits="userSpaceOnUse">
				<stop  offset="0.00325" style="stop-color:#E83027"/>
				<stop  offset="0.4369" style="stop-color:#D62B2A"/>
				<stop  offset="0.99936" style="stop-color:#BC242E"/>
			</radialGradient>
			<path class="st2" d="M723.47412,37.07475c-2.92188-5.06152-7.45734-9.18213-13.44873-12.00046
				c-4.40186-2.07089-9.10645-3.12101-13.98267-3.12101c-22.42572,0-43.43195,22.61867-50.03351,43.57489
				c-3.47577,11.03374-2.62042,21.06209,2.125,28.37153c-9.88745,3.24902-20.69196,8.19134-30.88086,14.99936
				c-1.45331,0.97112-2.90582,2.09367-4.32935,3.31265c-1.26392-2.3596-2.66174-4.63449-4.19464-6.80695
				c-2.62445-4.1377-5.69427-7.95928-9.1897-11.36597c-5.22327-5.09076-11.12787-9.08292-17.43018-11.86686
				c3.14423-4.21229,3.75256-8.43414,3.48926-11.72605c-0.29871-3.73431-1.67529-6.9356-3.84674-9.65978
				c-6.36133-11.60524-25.73035-15.91792-42.39246-15.91846c-32.65973-0.00108-61.1355,14.48903-76.17282,38.7608
				c-5.1503,8.31312-9.5137,15.92706-13.38055,23.16362c-0.35962-0.56493-0.75378-1.10268-1.16727-1.62473
				c-3.82791-6.89068-11.45959-10.97807-21.53674-10.97818c-9.38977,0-19.43735,3.35651-24.59079,5.35742
				c-18.89188,7.33459-35.19138,33.47184-48.98627,57.39504l-1.27304,2.20514
				c-11.74817,20.29735-27.45264,44.22701-40.98474,62.45067c-2.42224,3.26213-4.68286,6.22105-6.79987,8.92212
				c10.95908-24.1515,27.30206-53.1675,39.26245-74.39845c6.91614-12.27669,12.37878-21.97356,14.98334-27.48875
				c4.93436-10.44926,2.01413-17.78116-0.16574-21.22171c-0.34921-0.55107-0.74829-1.11526-1.20038-1.68083
				c-0.18875-0.34406-0.37726-0.67123-0.56064-0.96069c-2.85208-4.5011-8.92404-9.86691-21.65485-9.86797
				c-9.82199-0.00076-21.54211,3.28298-30.68234,8.58483l-0.31976,0.168l-0.39844,0.24936l-0.10135,0.06396
				c-0.94168,0.5687-1.8714,1.17222-2.76816,1.79691c-1.09567,0.72541-2.44308,1.63622-3.94141,2.67301
				c8.04807-23.432,15.54333-47.35983,22.31116-71.59483c1.98468-7.10715,0.7312-14.11273-3.52957-19.72628
				c-0.04987-0.06567-0.10886-0.12576-0.15948-0.19089c-0.47928-0.83998-1.00293-1.66202-1.6015-2.45063
				c-7.0488-9.28703-21.65015-13.996-43.3981-13.996c-29.26826,0-69.45247,9.11516-89.62631,26.53678
				c-14.22237,12.28206-27.27293,47.31243-27.61775,61.97204c-0.12671,5.39074,1.18555,9.73416,3.89296,12.94835
				c0.76389,1.44115,1.71512,2.7346,2.88734,3.84727c4.30504,4.08643,10.08412,6.33671,16.27261,6.33671
				c8.25185,0,16.79907-4.00839,23.44974-10.99741c2.35582-2.47568,6.26039-7.21743,11.66435-13.78039
				c4.03204-4.89664,11.05255-13.42118,18.21109-21.66454c-2.50438,8.63643-5.79704,19.21326-10.10445,32.08283
				c-9.73438,29.08404-21.75838,61.02789-28.59026,75.95514c-13.9846,30.55571-27.20866,55.26924-39.40506,75.46028
				c-0.83118-9.63699-5.12032-19.80421-8.06473-25.79773c-1.64192-3.34221-4.02957-7.73442-7.00096-11.99776
				c-4.33116-6.79169-10.22923-13.86917-17.12495-16.46835c-7.03783-2.6528-14.19861-3.99808-21.28362-3.9984
				c-26.38598-0.00139-50.91862,17.86821-72.91656,53.11247C2.90066,279.7309-4.64824,312.86285,2.74901,342.5014
				c2.89303,11.59137,7.67843,20.98526,12.89246,28.47247c8.3675,13.0253,18.34404,20.78864,23.5311,24.22372
				c13.78178,9.12677,28.75986,18.03738,46.95612,18.03738c10.32736,0,20.55745-3.02094,30.4063-8.97897
				c44.1165-26.68811,74.53012-68.96796,99.93854-114.15833c0.3318,3.30835,0.91124,6.4039,1.79852,9.24103
				c1.23145,3.93768,3.11488,7.5473,5.49736,10.81738c8.00346,13.18246,24.04251,21.33521,43.2717,21.33521
				c11.99841,0,23.42026-3.30298,32.1615-9.30057c8.13156-5.57947,14.7774-12.51099,20.74435-19.92136
				c0.45273,5.75296,1.98706,10.77148,5.0824,14.83191c0.05264,0.069,0.11447,0.12714,0.16776,0.1954
				c0.4826,0.84534,1.00058,1.66867,1.59326,2.44611c3.95065,5.18256,9.92731,8.03668,16.82883,8.03668
				c3.95789,0,8.17822-0.8989,12.90256-2.74805c2.46515-0.96487,5.38022-2.47665,8.68491-4.77356
				c-2.49005,7.25665-4.86557,14.30115-7.11639,21.11411l-3.92853,5.13708l2.8176-1.76093
				c-17.35562,52.89932-27.29755,92.00946-29.58749,116.47061c-1.59259,17.0105,3.03726,34.35526,12.51004,47.91821
				c2.06033,3.26794,4.37695,6.35303,6.95676,9.18567c9.20557,10.10767,20.69946,15.90479,31.53445,15.90479
				c0.79044,0,1.5867-0.03052,2.36636-0.09082c13.85886-1.07043,18.19412-17.30701,19.82614-23.4194
				c2.41721-9.05273,4.16263-20.4072,6.01062-32.42828c1.40823-9.16138,2.86453-18.63458,4.60245-26.70639
				c0.73474-3.41284,1.57507-7.6492,2.548-12.55453c5.89935-29.74356,17.90475-90.2276,45.25412-157.33099
				c1.8656,6.97073,5.12051,14.17999,9.56015,20.44995c5.43427,8.59848,12.95306,15.83603,22.03513,18.93176
				c5.33368,1.81808,10.84018,2.73999,16.36646,2.73999c18.18164,0,36.19269-9.62045,53.53296-28.59402
				c2.94354-3.22076,5.80658-6.66098,8.59253-10.26514c0.16748,9.92999,3.86829,23.61249,10.18335,32.31223
				c1.32904,2.19577,2.79736,4.17712,4.39923,5.83099c5.14264,5.30969,10.48224,6.42429,14.05609,6.42429
				c3.20312,0,8.00153-0.90201,12.67084-5.19855c13.1676-12.11655,29.28168-38.69031,47.89478-78.98328
				c5.38104-11.64867,17.1806-40.16014,25.9353-67.07719c14.8924-45.78809,13.85754-63.99423,9.84485-73.39143
				c16.66504-7.97626,30.43304-25.44775,34.02429-41.51915C730.37457,53.16399,728.64441,44.02755,723.47412,37.07475z"/>
			<g>
				<path class="st3" d="M381.01321,330.60156c0.00519-0.02597,0.01025-0.05228,0.0155-0.07828
					c-0.02158,0.03168-0.04059,0.07306-0.06265,0.10236C380.98071,330.61719,380.99835,330.61002,381.01321,330.60156z"/>
				<g>
					<path class="st3" d="M190.26918,43.67354c-12.68925,10.95816-27.72302,52.58369-22.16879,57.85583
						c5.27721,5.00909,14.80617,3.66318,22.30579-4.2179c8.81366-9.26196,53.81845-68.67187,59.33951-59.70086
						c6.08481,9.88697-31.9895,117.38565-46.2589,148.56335c-24.60873,53.76901-53.9362,106.50038-94.75723,150.08159
						c-9.26023,9.88626-51.8224,53.81464-64.66426,31.23819c-9.24571-16.25412,23.67051-96.61987,60.60562-108.08215
						c12.53685-3.89067,17.13078,5.92749,28.15168,5.87891c16.50256-0.07272-4.27603-46.91225-16.48822-51.51532
						c-30.85756-11.63123-57.8542,9.59442-79.39496,44.10623c-46.87434,75.10034-11.80861,118.22714,8.57433,131.72543
						c18.42189,12.19968,39.01181,24.01151,64.17545,8.78885c55.662-33.67249,88.77211-94.34015,117.09621-150.31589
						c32.82812-64.8766,60.2919-138.90659,80.10791-209.86604C314.79163,9.93052,220.92996,17.19564,190.26918,43.67354z"/>
				</g>
				<g>
					<path class="st3" d="M608.05573,144.53114c-2.6239-29.11169-25.211-48.20991-47.86072-47.30535
						c-21.6709,0.86542-43.42987,19.19485-61.00616,43.47465c10.21066-17.82133,22.44336-32.62261,37.25415-43.11734
						c11.84308-8.39156,37.11121-12.61134,36.40283-21.46732c-1.14062-14.2603-70.37125-23.07563-97.88419,21.33332
						c-24.21677,39.08843-30.75992,61.952-48.01083,103.88937c-17.48495,42.50653-79.93427,203.67618-85.98969,268.35785
						c-3.00818,32.13165,20.19434,58.24167,38.3837,56.83676c10.85938-0.83881,13.07864-43.78821,19.33771-72.85822
						c6.58453-30.58118,22.46802-132.18137,77.84839-234.38263c16.09732-29.70671,52.1954-83.57529,83.82462-86.34518
						c22.01318-1.9279,12.03296,59.20396-40.4314,133.19351c-10.89603,15.36636-23.39145,15.68454-32.8967,14.04208
						c-7.6257-1.31754-9.86053-15.45398-12.5-13.7012c-9.83237,6.52982,0.85306,41.23288,19.58063,47.61633
						C554.55212,334.70081,612.76428,196.77113,608.05573,144.53114z M381.01321,330.60156
						c-0.01486,0.00845-0.0325,0.01562-0.04715,0.02408c0.02206-0.0293,0.04108-0.07068,0.06265-0.10236
						C381.02347,330.54929,381.0184,330.57559,381.01321,330.60156z"/>
				</g>
				<g>
					<path class="st3" d="M403.50403,241.89262c0.68518-5.57555-30.96088,17.84435-27.98062,3.65381
						c4.50613-21.45767,31.80444-62.78831,50.56155-93.16756c6.58951-10.67245,14.28094-21.8033,14.2616-28.69655
						c-0.04141-14.8137-20.92123-9.64745-32.07788-5.31591c-17.23611,6.69186-35.39423,39.32635-44.05182,54.28407
						c-23.03458,39.79642-68.62039,106.20895-84.19336,104.40176c-7.19852-0.83542,0.41925-19.65353,12.50726-46.40416
						c17.36685-38.43239,47.78604-88.22563,54.57056-102.59261c8.33966-17.66-19.20767-15.98091-35.41458-6.43551
						c-0.04013,0.02103-0.0751,0.03725-0.11554,0.0585c0,0-0.07153,0.04481-0.17786,0.11227
						c-0.79935,0.4795-1.56644,0.97881-2.30237,1.49551c-6.4202,4.24333-23.7659,16.25145-33.09973,27.9906
						c-12.70087,15.97369-4.25323,16.38403-4.25323,16.38403s3.19391,0.81187,10.49512-5.74928
						c-25.92508,43.05055-60.29446,111.03679-50.89999,141.07616c6.95671,22.24393,41.80789,26.50259,60.43015,13.72537
						c21.245-14.577,32.35187-41.77621,50.55301-59.35257c5.97308-2.56558-28.98114,75.84198,9.24719,60.87875
						C372.5914,310.00845,401.22418,260.44244,403.50403,241.89262z"/>
				</g>
				<g>
					<path class="st3" d="M673.90527,108.77966c-11.65332,0.28303-31.26532,6.17665-48.50745,17.69756
						c-15.39099,10.28404-14.4895,25.12231-8.83105,27.66833c3.5459,1.59561,14.85992-18.93228,20.56744-15.44273
						c2.48853,2.2825-8.12445,33.83998-19.83636,65.20323c-4.17523,11.1806-12.24054,28.80197-22.84106,51.34186
						c-3.96094,8.42198-11.30231,21.65706-11.74548,35.52177c-0.42432,13.27539,9.00397,38.25702,18.87396,29.17471
						c14.61499-13.44833,32.4046-47.7049,45.05115-75.08163C656.44879,223.62132,704.28375,108.04163,673.90527,108.77966z"/>
				</g>
				<g>
					<path class="st3" d="M706.07416,43.55738c-27.14056-12.76823-62.18164,40.89264-43.19745,54.17104
						C690.89886,117.32851,736.83032,58.025,706.07416,43.55738z"/>
				</g>
			</g>
			<g>
				<path class="st4" d="M377.36932,322.09915c0.00516-0.02597,0.01022-0.05228,0.0155-0.07828
					c-0.02158,0.03165-0.04059,0.07303-0.06265,0.10233C377.33682,322.11478,377.35446,322.10757,377.36932,322.09915z"/>
				<g>
					<path class="st4" d="M186.62527,35.17112c-12.68924,10.95816-27.72302,52.58369-22.16878,57.85583
						c5.27721,5.00908,14.80617,3.66317,22.30579-4.2179c8.81366-9.26196,53.81845-68.67188,59.33951-59.70086
						c6.08479,9.88698-31.9895,117.38566-46.2589,148.56337c-24.60873,53.76901-53.9362,106.50038-94.75723,150.08159
						c-9.26022,9.88626-51.82239,53.81461-64.66425,31.23819c-9.24571-16.25412,23.67051-96.61987,60.60562-108.08217
						c12.53684-3.89066,17.13078,5.92751,28.15168,5.87892c16.50256-0.07272-4.27604-46.91226-16.48822-51.51532
						c-30.85757-11.63124-57.8542,9.59442-79.39497,44.10623c-46.87434,75.10034-11.80861,118.22714,8.57433,131.72543
						c18.42188,12.19968,39.01181,24.01151,64.17545,8.78882c55.662-33.67245,88.77211-94.34012,117.09621-150.31586
						c32.82812-64.87662,60.2919-138.90659,80.10791-209.86604C311.14774,1.4281,217.28607,8.69322,186.62527,35.17112z"/>
				</g>
				<g>
					<path class="st4" d="M604.4118,136.02873c-2.62384-29.11169-25.211-48.20992-47.86066-47.30536
						c-21.67096,0.86543-43.42993,19.19485-61.0062,43.47466c10.21066-17.82134,22.44333-32.62262,37.25412-43.11734
						c11.84314-8.39156,37.11121-12.61134,36.40283-21.46732c-1.14056-14.2603-70.37122-23.07563-97.88416,21.33332
						c-24.21677,39.08843-30.75995,61.952-48.01083,103.88935c-17.48495,42.50653-79.93427,203.67619-85.98972,268.35785
						c-3.00815,32.13165,20.19434,58.2417,38.38373,56.83679c10.85938-0.83881,13.07864-43.78824,19.33771-72.85825
						c6.58453-30.58118,22.46802-132.18137,77.84839-234.38264c16.09732-29.7067,52.19537-83.57527,83.82465-86.34517
						c22.01318-1.9279,12.03296,59.20396-40.43146,133.19351c-10.896,15.36636-23.39142,15.68454-32.89667,14.04208
						c-7.6257-1.31754-9.86053-15.45401-12.5-13.7012c-9.83237,6.52982,0.85306,41.23288,19.58063,47.61633
						C550.9082,326.19839,609.12036,188.26872,604.4118,136.02873z M377.36932,322.09915
						c-0.01486,0.00842-0.0325,0.01562-0.04715,0.02405c0.02206-0.0293,0.04108-0.07068,0.06265-0.10233
						C377.37955,322.04688,377.37448,322.07318,377.36932,322.09915z"/>
				</g>
				<g>
					<path class="st4" d="M399.86014,233.3902c0.68518-5.57553-30.96088,17.84435-27.98062,3.65382
						c4.50613-21.45767,31.80444-62.78831,50.56155-93.16757c6.58951-10.67245,14.28094-21.80328,14.2616-28.69654
						c-0.04141-14.8137-20.92123-9.64745-32.07788-5.31591c-17.23611,6.69186-35.39423,39.32635-44.05182,54.28406
						c-23.03458,39.79643-68.62039,106.20894-84.19336,104.40178c-7.19852-0.83542,0.41925-19.65353,12.50726-46.40416
						c17.36685-38.4324,47.78604-88.22565,54.57056-102.59262c8.33966-17.66-19.20767-15.9809-35.41458-6.4355
						c-0.04013,0.02103-0.0751,0.03725-0.11554,0.0585c0,0-0.07153,0.04482-0.17786,0.11228
						c-0.79935,0.47949-1.56644,0.97881-2.30237,1.4955c-6.4202,4.24334-23.7659,16.25146-33.09973,27.99061
						c-12.70087,15.97369-4.25323,16.38403-4.25323,16.38403s3.19391,0.81187,10.49512-5.7493
						c-25.92509,43.05057-60.29446,111.0368-50.89999,141.07617c6.9567,22.2439,41.80789,26.50256,60.43015,13.72534
						c21.245-14.57697,32.35187-41.77618,50.55301-59.35254c5.97308-2.5656-28.98114,75.84198,9.24719,60.87875
						C368.94751,301.50601,397.58029,251.94005,399.86014,233.3902z"/>
				</g>
				<g>
					<path class="st4" d="M670.26141,100.27724c-11.65332,0.28302-31.26538,6.17665-48.50751,17.69756
						c-15.39099,10.28404-14.48944,25.12231-8.83105,27.66833c3.5459,1.59561,14.85999-18.93228,20.5675-15.44275
						c2.48846,2.28252-8.12451,33.84-19.83643,65.20323c-4.17523,11.1806-12.24048,28.80197-22.841,51.34187
						c-3.96094,8.42197-11.30237,21.65706-11.74554,35.52177c-0.42432,13.27539,9.00397,38.25702,18.87402,29.17471
						c14.61499-13.44833,32.40454-47.7049,45.05109-75.08165C652.80493,215.11891,700.63989,99.53921,670.26141,100.27724z"/>
				</g>
				<g>
					<path class="st4" d="M702.43024,35.05497c-27.1405-12.76823-62.18164,40.89264-43.19745,54.17104
						C687.25494,108.8261,733.1864,49.52258,702.43024,35.05497z"/>
				</g>
			</g>
			<g>
				<path class="st5" d="M376.65652,319.94968c0.00516-0.026,0.01022-0.05231,0.0155-0.07828
					c-0.02158,0.03165-0.04059,0.07303-0.06265,0.10233C376.62402,319.9653,376.64166,319.9581,376.65652,319.94968z"/>
				<g>
					<path class="st5" d="M185.91248,33.02163c-12.68924,10.95816-27.72302,52.5837-22.16878,57.85583
						c5.27721,5.00908,14.80617,3.66317,22.30579-4.2179c8.81366-9.26196,53.81845-68.67188,59.33951-59.70086
						c6.08479,9.88698-31.9895,117.38566-46.2589,148.56335c-24.60873,53.76901-53.9362,106.50037-94.75723,150.08157
						c-9.26022,9.88626-51.82239,53.81464-64.66425,31.23819c-9.24571-16.25409,23.67051-96.61984,60.60562-108.08215
						c12.53684-3.89066,17.13078,5.92751,28.15168,5.87892c16.50256-0.07274-4.27604-46.91226-16.48822-51.51532
						c-30.85757-11.63124-57.8542,9.59442-79.39497,44.10623c-46.87434,75.10033-11.80861,118.22713,8.57433,131.72545
						c18.42188,12.19965,39.01181,24.01147,64.17545,8.78882c55.662-33.67245,88.77211-94.34015,117.09621-150.31587
						c32.82812-64.8766,60.2919-138.90659,80.10791-209.86604C310.43494-0.72139,216.57327,6.54373,185.91248,33.02163z"/>
				</g>
				<g>
					<path class="st5" d="M603.69897,133.87924c-2.62384-29.11169-25.21094-48.20992-47.86066-47.30535
						c-21.6709,0.86542-43.42987,19.19484-61.00616,43.47465c10.21066-17.82134,22.44336-32.62261,37.25415-43.11734
						c11.84308-8.39156,37.11121-12.61134,36.40277-21.46732c-1.14056-14.2603-70.37119-23.07563-97.88412,21.33332
						c-24.21677,39.08843-30.75995,61.952-48.01083,103.88935c-17.48495,42.50653-79.93427,203.67618-85.98972,268.35785
						c-3.00815,32.13165,20.19434,58.24167,38.38373,56.83682c10.85938-0.83881,13.07864-43.78827,19.33771-72.85828
						c6.58453-30.58118,22.46802-132.18137,77.84839-234.38263c16.09732-29.7067,52.19534-83.57527,83.82462-86.34517
						c22.01318-1.9279,12.03296,59.20396-40.4314,133.19351c-10.89603,15.36638-23.39145,15.68452-32.8967,14.0421
						c-7.6257-1.31757-9.86053-15.45401-12.5-13.70122c-9.83237,6.52983,0.85306,41.23286,19.58063,47.61632
						C550.19543,324.04892,608.40759,186.11923,603.69897,133.87924z M376.65652,319.94968
						c-0.01486,0.00842-0.0325,0.01562-0.04715,0.02405c0.02206-0.0293,0.04108-0.07068,0.06265-0.10233
						C376.66675,319.89737,376.66168,319.92368,376.65652,319.94968z"/>
				</g>
				<g>
					<path class="st5" d="M399.14734,231.24072c0.68518-5.57555-30.96088,17.84433-27.98062,3.65381
						c4.50613-21.45767,31.80444-62.78831,50.56155-93.16757c6.58951-10.67244,14.28094-21.80328,14.2616-28.69654
						c-0.04141-14.8137-20.92123-9.64745-32.07788-5.31591c-17.23611,6.69186-35.39423,39.32635-44.05182,54.28407
						c-23.03458,39.79642-68.62039,106.20894-84.19336,104.40175c-7.19852-0.83542,0.41925-19.6535,12.50726-46.40414
						c17.36685-38.4324,47.78604-88.22563,54.57056-102.59261c8.33966-17.66-19.20767-15.98091-35.41458-6.43551
						c-0.04013,0.02103-0.0751,0.03725-0.11554,0.05851c0,0-0.07153,0.04481-0.17786,0.11227
						c-0.79935,0.4795-1.56644,0.97881-2.30237,1.4955c-6.4202,4.24334-23.7659,16.25146-33.09973,27.99061
						c-12.70087,15.97369-4.25323,16.38403-4.25323,16.38403s3.19391,0.81187,10.49512-5.74928
						c-25.92509,43.05055-60.29446,111.03677-50.89999,141.07614c6.9567,22.24393,41.80789,26.50259,60.43015,13.72537
						c21.245-14.57697,32.35187-41.77621,50.55301-59.35255c5.97308-2.56558-28.98114,75.842,9.24719,60.87877
						C368.23471,299.35654,396.86749,249.79056,399.14734,231.24072z"/>
				</g>
				<g>
					<path class="st5" d="M669.54858,98.12775c-11.65332,0.28303-31.26532,6.17665-48.50745,17.69756
						c-15.39105,10.28404-14.4895,25.12231-8.83105,27.66833c3.5459,1.59561,14.85992-18.93228,20.56744-15.44273
						c2.48853,2.2825-8.12445,33.83998-19.83636,65.20323c-4.17523,11.1806-12.24054,28.80196-22.84106,51.34186
						c-3.96094,8.42197-11.30237,21.65704-11.74548,35.52176c-0.42432,13.27539,9.00397,38.25705,18.87396,29.17474
						c14.61499-13.44836,32.4046-47.7049,45.05115-75.08167C652.0921,212.96942,699.92706,97.38972,669.54858,98.12775z"/>
				</g>
				<g>
					<path class="st5" d="M701.71747,32.90548c-27.14056-12.76823-62.18164,40.89264-43.19745,54.17104
						C686.54218,106.67661,732.47363,47.37309,701.71747,32.90548z"/>
				</g>
			</g>
			<g>
				<radialGradient id="SVGID_3_" cx="241.00066" cy="97.32751" r="720.62012" gradientUnits="userSpaceOnUse">
					<stop  offset="0" style="stop-color:#F7E935"/>
					<stop  offset="0.27772" style="stop-color:#F8E534"/>
					<stop  offset="0.59744" style="stop-color:#FADD30"/>
					<stop  offset="0.93684" style="stop-color:#FFCF2A"/>
					<stop  offset="1" style="stop-color:#FFCC29"/>
				</radialGradient>
				<path class="st6" d="M376.3559,319.34836c0.00516-0.02597,0.01022-0.05228,0.0155-0.07825
					c-0.02161,0.03165-0.04062,0.07303-0.06268,0.10233C376.32336,319.36401,376.341,319.35681,376.3559,319.34836z"/>
				<g>
					<radialGradient id="SVGID_4_" cx="241.00066" cy="97.32751" r="720.62012" gradientUnits="userSpaceOnUse">
						<stop  offset="0" style="stop-color:#F7E935"/>
						<stop  offset="0.27772" style="stop-color:#F8E534"/>
						<stop  offset="0.59744" style="stop-color:#FADD30"/>
						<stop  offset="0.93684" style="stop-color:#FFCF2A"/>
						<stop  offset="1" style="stop-color:#FFCC29"/>
					</radialGradient>
					<path class="st7" d="M185.61183,32.42034c-12.68925,10.95817-27.72302,52.5837-22.16878,57.85583
						c5.27721,5.00908,14.80617,3.66317,22.30577-4.2179c8.81367-9.26196,53.81847-68.67187,59.33951-59.70086
						c6.08481,9.88698-31.9895,117.38567-46.25888,148.56337c-24.60873,53.769-53.9362,106.50037-94.75723,150.08157
						c-9.26023,9.88626-51.8224,53.81464-64.66426,31.23819c-9.24571-16.25412,23.67051-96.61984,60.60562-108.08217
						c12.53685-3.89064,17.13078,5.92752,28.15169,5.87894c16.50256-0.07274-4.27604-46.91226-16.48823-51.51532
						c-30.85756-11.63124-57.8542,9.59442-79.39496,44.10623c-46.87434,75.10033-11.80861,118.22713,8.57433,131.72545
						c18.42188,12.19965,39.01181,24.01147,64.17545,8.78882c55.66199-33.67245,88.77211-94.34015,117.09621-150.31587
						C254.95619,171.95,282.41998,97.92002,302.23596,26.96056C310.13428-1.32268,216.27263,5.94244,185.61183,32.42034z"/>
				</g>
				<g>
					<radialGradient id="SVGID_5_" cx="241.00066" cy="97.32751" r="720.62012" gradientUnits="userSpaceOnUse">
						<stop  offset="0" style="stop-color:#F7E935"/>
						<stop  offset="0.27772" style="stop-color:#F8E534"/>
						<stop  offset="0.59744" style="stop-color:#FADD30"/>
						<stop  offset="0.93684" style="stop-color:#FFCF2A"/>
						<stop  offset="1" style="stop-color:#FFCC29"/>
					</radialGradient>
					<path class="st8" d="M603.39838,133.27795c-2.6239-29.1117-25.211-48.20992-47.86072-47.30536
						c-21.6709,0.86542-43.42987,19.19485-61.00613,43.47466c10.21063-17.82135,22.44333-32.62262,37.25412-43.11735
						c11.84314-8.39156,37.11121-12.61134,36.40283-21.46732c-1.14056-14.2603-70.37122-23.07563-97.88419,21.33332
						c-24.21677,39.08843-30.75992,61.95201-48.01083,103.88936c-17.48492,42.50653-79.93427,203.67618-85.98969,268.35785
						c-3.00818,32.13165,20.19434,58.2417,38.3837,56.83679c10.85938-0.83881,13.07864-43.78824,19.33771-72.85825
						c6.58456-30.58118,22.46802-132.18137,77.84839-234.38263c16.09735-29.7067,52.1954-83.57528,83.82468-86.34518
						c22.01312-1.9279,12.0329,59.20396-40.43146,133.19351c-10.896,15.36639-23.39142,15.68454-32.8967,14.04211
						c-7.6257-1.31757-9.86053-15.45403-12.49997-13.70122c-9.8324,6.52983,0.85303,41.23286,19.5806,47.61632
						C549.89478,323.44763,608.10693,185.51794,603.39838,133.27795z M376.3559,319.34836
						c-0.01489,0.00845-0.03253,0.01566-0.04718,0.02408c0.02206-0.0293,0.04108-0.07068,0.06268-0.10233
						C376.36612,319.29608,376.36105,319.32239,376.3559,319.34836z"/>
				</g>
				<g>
					<radialGradient id="SVGID_6_" cx="241.00066" cy="97.32751" r="720.62012" gradientUnits="userSpaceOnUse">
						<stop  offset="0" style="stop-color:#F7E935"/>
						<stop  offset="0.27772" style="stop-color:#F8E534"/>
						<stop  offset="0.59744" style="stop-color:#FADD30"/>
						<stop  offset="0.93684" style="stop-color:#FFCF2A"/>
						<stop  offset="1" style="stop-color:#FFCC29"/>
					</radialGradient>
					<path class="st9" d="M398.84668,230.63942c0.68518-5.57555-30.96088,17.84435-27.98062,3.65381
						c4.50616-21.45766,31.80444-62.7883,50.56155-93.16756c6.58951-10.67245,14.28094-21.80328,14.2616-28.69655
						c-0.04141-14.8137-20.9212-9.64745-32.07788-5.31591c-17.23611,6.69186-35.3942,39.32636-44.05182,54.28407
						c-23.03455,39.79643-68.62036,106.20895-84.19336,104.40176c-7.19849-0.83542,0.41928-19.65352,12.50729-46.40414
						c17.36682-38.4324,47.78604-88.22565,54.57056-102.59262c8.33966-17.66-19.20767-15.98091-35.41458-6.4355
						c-0.04013,0.02103-0.07513,0.03725-0.11557,0.0585c0,0-0.07153,0.04481-0.17783,0.11227
						c-0.79938,0.4795-1.56647,0.97881-2.3024,1.49551c-6.42017,4.24333-23.7659,16.25144-33.09973,27.99061
						c-12.70084,15.97369-4.25323,16.38403-4.25323,16.38403s3.19391,0.81186,10.49512-5.7493
						c-25.92508,43.05057-60.29445,111.03679-50.89998,141.07616c6.9567,22.24393,41.80791,26.50259,60.43013,13.72537
						c21.245-14.577,32.3519-41.77621,50.55301-59.35257c5.97308-2.56558-28.98114,75.84201,9.24719,60.87875
						C367.93405,298.75525,396.56686,249.18925,398.84668,230.63942z"/>
				</g>
				<g>
					<radialGradient id="SVGID_7_" cx="241.00066" cy="97.32751" r="720.62012" gradientUnits="userSpaceOnUse">
						<stop  offset="0" style="stop-color:#F7E935"/>
						<stop  offset="0.27772" style="stop-color:#F8E534"/>
						<stop  offset="0.59744" style="stop-color:#FADD30"/>
						<stop  offset="0.93684" style="stop-color:#FFCF2A"/>
						<stop  offset="1" style="stop-color:#FFCC29"/>
					</radialGradient>
					<path class="st10" d="M669.24792,97.52646c-11.65332,0.28303-31.26532,6.17665-48.50745,17.69756
						c-15.39099,10.28404-14.4895,25.12232-8.83105,27.66834c3.5459,1.5956,14.85992-18.93229,20.56744-15.44275
						c2.48853,2.28252-8.12445,33.84-19.83636,65.20323c-4.17523,11.1806-12.24048,28.80197-22.841,51.34186
						c-3.961,8.42198-11.30237,21.65706-11.74554,35.52177c-0.42432,13.27539,9.00397,38.25705,18.87402,29.17471
						c14.61493-13.44833,32.40454-47.70486,45.05109-75.08163C651.79144,212.36812,699.62646,96.78842,669.24792,97.52646z"/>
				</g>
				<g>
					<radialGradient id="SVGID_8_" cx="241.00066" cy="97.32751" r="720.62012" gradientUnits="userSpaceOnUse">
						<stop  offset="0" style="stop-color:#F7E935"/>
						<stop  offset="0.27772" style="stop-color:#F8E534"/>
						<stop  offset="0.59744" style="stop-color:#FADD30"/>
						<stop  offset="0.93684" style="stop-color:#FFCF2A"/>
						<stop  offset="1" style="stop-color:#FFCC29"/>
					</radialGradient>
					<path class="st11" d="M701.41681,32.30419c-27.1405-12.76823-62.18164,40.89264-43.19745,54.17103
						C686.24152,106.07531,732.17297,46.7718,701.41681,32.30419z"/>
				</g>
			</g>
			<path class="st12" d="M345.33377,384.57959c0,0-1.98114,6.16354-8.14468,26.63535
				c47.76752-13.20761,81.44693,4.1824,81.44693,4.1824s5.7233-27.29572,6.38367-27.29572S345.33377,384.57959,345.33377,384.57959z
				"/>
			<radialGradient id="SVGID_9_" cx="357.25314" cy="377.02905" r="141.19368" gradientUnits="userSpaceOnUse">
				<stop  offset="0" style="stop-color:#D9B744"/>
				<stop  offset="0.47423" style="stop-color:#CBA937"/>
				<stop  offset="1" style="stop-color:#B79628"/>
			</radialGradient>
			<path class="st13" d="M206.35509,343.54657c-15.79973,4.63394-24.24786,12.21185-28.78375,19.4028
				c-25.65547,40.67273-3.21002,68.98718-3.21002,68.98718c0.61658-7.81335,6.72916-11.14456,9.48416-13.0108
				c33.3038-22.56036,134.84203-25.1105,204.5107-21.48407c20.12094,1.04736,101.89398,15.79196,135.46848-0.19125
				c21.84723-10.40039,33.58759-52.90277,18.84534-75.12888c-2.06549,12.3873-27.4118,17.4563-43.73837,16.65732
				c-63.48987-3.10703-114.85626-8.23453-157.75729-7.87277C269.55847,331.51001,225.88176,337.81949,206.35509,343.54657z"/>
			<g>
				<path class="st14" d="M233.69437,383.97452l-2.32251-3.98788l-12.44997,2.49927l-0.58122,4.66992
					c-0.22537,1.81955-0.48158,3.06979-0.76627,3.74826c-0.2823,0.67731-0.88249,1.10907-1.80296,1.2941
					c-0.77812,0.15659-1.53015-0.02371-2.26082-0.53851c-0.72594-0.51596-1.17194-1.17667-1.33325-1.98444
					c-0.09253-0.465-0.12337-0.95963-0.08304-1.48508c0.04033-0.5231,0.13048-1.26089,0.27283-2.20984l3.36633-23.72562
					c0.09488-0.68085,0.20876-1.49814,0.34161-2.453c0.13284-0.95602,0.32025-1.76382,0.55511-2.4245
					c0.23486-0.6619,0.60732-1.23123,1.11024-1.71283c0.50531-0.48038,1.18143-0.80539,2.03072-0.97501
					c0.86353-0.17438,1.6203-0.13641,2.27269,0.11148c0.65239,0.24792,1.21227,0.62512,1.68436,1.12686
					c0.46971,0.50293,0.89436,1.05923,1.2692,1.6701c0.3772,0.61087,0.86589,1.42816,1.46371,2.45419l12.44048,20.40912
					c0.96317,1.54794,1.52304,2.70444,1.67725,3.46359c0.15894,0.79117,0.00711,1.57758-0.45074,2.35333
					c-0.46024,0.77933-1.10551,1.2514-1.94293,1.41867c-0.48633,0.09845-0.92522,0.08539-1.3119-0.03796
					c-0.38431-0.12573-0.73067-0.32858-1.0367-0.61444c-0.30367-0.28586-0.65952-0.74847-1.0723-1.38306
					C234.35387,385.02545,233.99802,384.46323,233.69437,383.97452z M219.50548,376.96906l9.14769-1.83737l-7.45384-13.15219
					L219.50548,376.96906z"/>
				<path class="st14" d="M250.46671,353.68228l3.55138,25.08023l12.70143-1.78873c1.01297-0.14233,1.82907,0.02255,2.44824,0.49463
					c0.61917,0.47211,0.98688,1.12329,1.1055,1.95361c0.11862,0.84573-0.0498,1.56931-0.51242,2.16949
					c-0.45786,0.60019-1.20276,0.97266-2.22763,1.11737l-15.12831,2.12915c-1.36409,0.19217-2.39368-0.00592-3.08876-0.59662
					c-0.69035-0.58954-1.14346-1.63574-1.35698-3.1398l-3.76013-26.53564c-0.19928-1.41034-0.06642-2.50754,0.40567-3.29398
					c0.46971-0.78406,1.16718-1.24191,2.09714-1.37357c0.9418-0.13284,1.75314,0.10913,2.43875,0.72357
					C249.82143,351.2388,250.26506,352.25891,250.46671,353.68228z"/>
				<path class="st14" d="M277.82199,377.88l-2.69733-27.28412c-0.14233-1.41626,0.04269-2.50873,0.55273-3.27499
					c0.51007-0.76389,1.22412-1.19208,2.14221-1.28223c0.94894-0.09253,1.75079,0.18268,2.40555,0.82556
					c0.65475,0.6441,1.05569,1.68198,1.19803,3.11487l2.69733,27.28412c0.14233,1.4317-0.04507,2.53247-0.56223,3.29636
					c-0.51718,0.76743-1.24786,1.19684-2.1944,1.28934c-0.90387,0.0878-1.68674-0.19571-2.34387-0.85522
					C278.36288,380.3342,277.96198,379.2963,277.82199,377.88z"/>
				<path class="st14" d="M304.9021,374.20648l-5.98776-21.92859l1.06757,23.99606c0.0593,1.32849-0.1637,2.33554-0.66428,3.02234
					c-0.50293,0.6868-1.19565,1.05093-2.07578,1.0889c-0.85165,0.03677-1.56097-0.25977-2.13034-0.89319
					c-0.56937-0.6322-0.88013-1.6203-0.93945-2.96539l-1.22647-27.50595c-0.06882-1.51709,0.24197-2.55615,0.92755-3.11722
					c0.68326-0.55988,1.63217-0.86591,2.83731-0.91928l1.95718-0.08539c1.17905-0.05103,2.04019,0.02963,2.58347,0.24432
					c0.54086,0.21234,0.95602,0.62393,1.23834,1.23007c0.28232,0.60376,0.61917,1.59537,1.00824,2.97134l5.38043,18.84454
					l3.68658-19.23956c0.26572-1.40442,0.51242-2.42096,0.73779-3.04843c0.23013-0.62866,0.60495-1.0723,1.12448-1.33444
					c0.52429-0.25858,1.3736-0.41513,2.55026-0.46616l1.95715-0.08539c1.20752-0.05219,2.1778,0.17081,2.91086,0.66898
					c0.73306,0.4982,1.13397,1.50644,1.20276,3.02472l1.22412,27.50595c0.05933,1.32849-0.16132,2.33554-0.66425,3.02353
					c-0.50293,0.68558-1.20276,1.05093-2.09714,1.08771c-0.83743,0.03677-1.53726-0.26453-2.11136-0.90506
					c-0.56699-0.6405-0.88251-1.62503-0.94183-2.95236l-1.06516-23.99725l-4.01874,22.3663
					c-0.26096,1.45184-0.47919,2.51941-0.65475,3.20026c-0.17792,0.68085-0.52902,1.30954-1.05804,1.88599
					c-0.5314,0.57886-1.28345,0.88846-2.26321,0.93115c-0.73541,0.0332-1.37119-0.11862-1.89786-0.45193
					c-0.52429-0.33331-0.9418-0.76981-1.25021-1.3107c-0.31076-0.54089-0.55988-1.14465-0.75439-1.8089
					S305.10373,374.92767,304.9021,374.20648z"/>
				<path class="st14" d="M355.27133,350.00046l-14.25058-0.46381l-0.27045,8.54037l13.12134,0.42703
					c0.96555,0.03201,1.67725,0.29773,2.13748,0.79471c0.46021,0.4982,0.67847,1.14227,0.65475,1.93344
					c-0.02609,0.7912-0.28232,1.42816-0.76627,1.90973c-0.48395,0.48279-1.21701,0.70816-2.19678,0.67612l-13.11896-0.42819
					l-0.31552,9.89142l14.73688,0.48276c0.9964,0.03201,1.73654,0.31433,2.22525,0.84454
					c0.48633,0.53021,0.71881,1.22174,0.68799,2.07578c-0.02374,0.82202-0.29654,1.48273-0.81845,1.97971
					c-0.51956,0.49701-1.27869,0.73068-2.27271,0.69867l-17.1875-0.56464c-1.37595-0.04388-2.35571-0.41513-2.93695-1.11618
					c-0.58121-0.69864-0.84927-1.80887-0.79947-3.32718l0.83032-26.14185c0.03085-1.01178,0.19452-1.83261,0.48157-2.46484
					c0.28943-0.63223,0.72833-1.08295,1.31192-1.35696c0.58597-0.27518,1.32376-0.39856,2.21811-0.36771l16.69882,0.54681
					c1.00824,0.03201,1.74838,0.30484,2.22287,0.81964c0.47446,0.51361,0.69983,1.17429,0.67374,1.98209
					c-0.02609,0.8208-0.29419,1.4744-0.79712,1.95596C357.03397,349.80948,356.27954,350.03604,355.27133,350.00046z"/>
				<path class="st14" d="M377.1062,350.0123l10.02307,21.64749l2.1019-20.58823c0.13522-1.33801,0.49817-2.3154,1.07941-2.93103
					c0.58597-0.61441,1.31427-0.87775,2.19202-0.7876c0.90387,0.09253,1.5871,0.50174,2.03784,1.22412
					c0.45547,0.72354,0.61206,1.75433,0.47919,3.08994l-2.78036,27.22244c-0.31076,3.03778-1.59656,4.44101-3.85739,4.20853
					c-0.56699-0.05814-1.06519-0.20166-1.4993-0.4306c-0.43176-0.22653-0.82794-0.5575-1.18381-0.99161
					c-0.35345-0.43414-0.67612-0.93234-0.96317-1.49457c-0.28467-0.56345-0.56699-1.13635-0.85165-1.72232l-9.75027-21.37939
					l-2.06866,20.27982c-0.13522,1.32257-0.51242,2.29288-1.13397,2.9144c-0.61917,0.62039-1.36169,0.8837-2.22287,0.79593
					c-0.88962-0.09253-1.57047-0.50769-2.03543-1.24783c-0.46738-0.74136-0.63342-1.76263-0.50058-3.0686l2.7258-26.7041
					c0.11624-1.13278,0.3179-2.00937,0.60971-2.63208c0.34161-0.68088,0.84689-1.21463,1.5159-1.59778
					c0.66663-0.3855,1.36172-0.54089,2.08292-0.46616c0.56223,0.05814,1.03668,0.21115,1.42102,0.45786
					c0.38193,0.24554,0.70456,0.5575,0.97501,0.93469c0.26572,0.37839,0.5314,0.8588,0.79474,1.44357
					C376.5582,348.77158,376.82864,349.37891,377.1062,350.0123z"/>
				<path class="st14" d="M424.54559,356.52435l-6.88211-0.5575l-2.01172,25.19647
					c-0.11624,1.45065-0.49344,2.50397-1.12924,3.15756c-0.63815,0.65594-1.41626,0.94656-2.33435,0.87183
					c-0.93707-0.07474-1.67252-0.49225-2.19916-1.25021c-0.5314-0.75677-0.74017-1.85397-0.62393-3.28806l2.00937-25.19647
					l-6.87973-0.55511c-1.07706-0.08777-1.85516-0.41635-2.33914-0.98807c-0.47919-0.56937-0.68558-1.28937-0.61679-2.15646
					c0.07117-0.89911,0.40329-1.58591,0.98688-2.06274c0.58597-0.47684,1.39969-0.67374,2.43164-0.58951l20.05328,1.62149
					c1.09125,0.08896,1.87888,0.42227,2.3652,1.00229c0.49106,0.57886,0.69983,1.30243,0.63339,2.1683
					c-0.07117,0.86948-0.39615,1.5444-0.97739,2.02954C426.45059,356.41284,425.62265,356.61093,424.54559,356.52435z"/>
				<path class="st14" d="M447.36026,351.48907c3.23349,0.16608,5.97351,1.03909,8.22012,2.61786
					c2.24896,1.58118,3.89771,3.74829,4.95578,6.50375c1.05804,2.75543,1.49457,5.95096,1.31189,9.58536
					c-0.13284,2.68549-0.58359,5.11118-1.34274,7.27356c-0.76627,2.16357-1.83853,4.01874-3.22397,5.5643
					c-1.38782,1.54437-3.05319,2.69495-4.99612,3.45172c-1.94293,0.75558-4.14447,1.0723-6.59744,0.94656
					c-2.44113-0.12454-4.60468-0.67493-6.49069-1.64996c-1.88599-0.97501-3.43512-2.29404-4.64502-3.95703
					c-1.20987-1.6618-2.09-3.63083-2.638-5.90945c-0.54803-2.27744-0.75677-4.72095-0.62631-7.32812
					c0.13522-2.67004,0.60019-5.10287,1.40204-7.29489c0.7995-2.19324,1.89075-4.03888,3.27618-5.53583
					c1.38309-1.49814,3.03183-2.61548,4.94632-3.34854C442.82437,351.67294,444.97607,351.3681,447.36026,351.48907z
					 M455.44516,369.82004c0.12808-2.54312-0.13049-4.76599-0.77576-6.6698c-0.64526-1.9014-1.62741-3.36395-2.95117-4.39117
					c-1.31665-1.02603-2.86813-1.58353-4.63791-1.67487c-1.26443-0.06403-2.44586,0.13998-3.54187,0.61563
					c-1.10077,0.47446-2.05917,1.19803-2.88477,2.16949c-0.8208,0.97266-1.49692,2.23236-2.02359,3.78149
					c-0.52429,1.55029-0.83743,3.30463-0.93707,5.26419c-0.09726,1.97614,0.03796,3.772,0.40567,5.39227
					c0.36536,1.61795,0.92758,2.97372,1.69385,4.06619c0.76389,1.09244,1.66064,1.92749,2.69022,2.50281
					c1.03195,0.5741,2.1778,0.89435,3.44226,0.9584c1.61792,0.08304,3.12671-0.29181,4.5264-1.12329
					c1.39966-0.83151,2.5455-2.16711,3.44461-4.00568C454.79037,374.86716,455.30756,372.57074,455.44516,369.82004z"/>
				<path class="st14" d="M494.28723,377.41742c0.00238,2.10425-0.47919,3.995-1.45422,5.67224
					c-0.97266,1.67722-2.39606,2.98911-4.27255,3.93686c-1.87415,0.94894-4.09464,1.4234-6.66626,1.42221
					c-3.08401-0.00238-5.62714-0.65237-7.63174-1.95123c-1.4234-0.93234-2.57397-2.17899-3.46362-3.7388
					c-0.88724-1.55743-1.33322-3.07452-1.3356-4.54654c0-0.85287,0.26807-1.58591,0.79947-2.19443
					c0.5314-0.60849,1.2099-0.91333,2.03546-0.91333c0.66663,0,1.23123,0.2384,1.69385,0.71289
					c0.46021,0.47565,0.85403,1.18024,1.18378,2.11374c0.39618,1.10669,0.82794,2.03427,1.28818,2.77679
					c0.46262,0.7449,1.11261,1.35815,1.95242,1.83975c0.83981,0.48395,1.9382,0.72473,3.30228,0.72592
					c1.8765,0.00238,3.40192-0.48395,4.57147-1.4566c1.17194-0.97266,1.7579-2.1861,1.75552-3.6427
					c0-1.15414-0.31552-2.0936-0.95129-2.8136c-0.63104-0.72-1.44714-1.27036-2.44824-1.64993
					c-1.00113-0.37958-2.34387-0.78406-4.01874-1.21344c-2.2442-0.58597-4.12311-1.27039-5.63901-2.05444
					c-1.51117-0.78406-2.71158-1.85278-3.6012-3.20621c-0.88962-1.35339-1.33325-3.03537-1.33325-5.04474
					c0-1.91446,0.465-3.61426,1.40442-5.10168c0.93707-1.48627,2.29404-2.62973,4.06616-3.42682
					c1.77689-0.7995,3.86453-1.19684,6.26532-1.19684c1.91684,0,3.57748,0.26688,4.97714,0.79709s2.5621,1.2348,3.48495,2.11374
					c0.92282,0.87894,1.59894,1.80179,2.02832,2.76733c0.42227,0.96552,0.63815,1.90616,0.64053,2.82306
					c-0.00238,0.83981-0.26807,1.5954-0.79947,2.26675c-0.5314,0.67255-1.19803,1.00824-1.99277,1.00824
					c-0.72592-0.00119-1.27631-0.20285-1.6535-0.60614s-0.78287-1.06396-1.22412-1.98325
					c-0.56937-1.31192-1.25259-2.33676-2.04968-3.07336c-0.79474-0.7366-2.07343-1.10431-3.83368-1.10669
					c-1.63217,0-2.95117,0.39975-3.9523,1.19803s-1.50406,1.75909-1.50168,2.88239c0,0.69745,0.17081,1.29883,0.51004,1.80533
					c0.34399,0.5065,0.81372,0.94064,1.40918,1.30478c0.59546,0.36536,1.20276,0.65002,1.81009,0.85641
					c0.61206,0.2052,1.62265,0.5065,3.02707,0.90268c1.76501,0.46024,3.35922,0.96671,4.78735,1.52185
					c1.42578,0.55392,2.64041,1.22766,3.64389,2.01883c1.00113,0.79236,1.78162,1.7923,2.34625,3.0022
					C494.00967,374.17801,494.28961,375.6619,494.28723,377.41742z"/>
			</g>
			<path class="st15" d="M542.63525,326.30328c0,0,6.07312,25.81091-24.2926,34.92062
				c-30.36578,9.10974-245.35547-22.47067-334.0235,17.61215c-9.10973,1.82196-14.22543-21.45721,28.54382-34.61697
				c43.42305-13.36093,135.735-11.23532,177.33611-9.41339C451.49121,337.49002,533.22186,354.84711,542.63525,326.30328z"/>
		</g>
	</g>
	<g>
		<path class="st14" d="M685.32507,231.79024c0.57684,0,1.04004-0.17984,1.38953-0.54123
			c0.34784-0.35968,0.52258-0.96877,0.52258-1.82387l0.00171-8.95813h-2.83002v-4.12787l11.49292,0.00169v4.12787h-1.52869
			l-0.00165,8.73248c0,1.29114-0.2002,2.38206-0.59894,3.27109c-0.39868,0.88902-0.9433,1.61858-1.63043,2.18694
			c-0.68884,0.57176-1.49475,0.98235-2.42108,1.23344s-1.90698,0.37834-2.9436,0.37834c-0.76349,0-1.50323-0.05598-2.21753-0.16457
			c-0.71252-0.10858-1.23169-0.23074-1.55408-0.36478v-4.22797c0.37323,0.08482,0.77368,0.151,1.19781,0.20189
			C684.62775,231.76648,685.00275,231.79024,685.32507,231.79024z"/>
		<path class="st14" d="M715.09052,228.90089c0,1.35899-0.19171,2.5025-0.57343,3.43394
			c-0.38348,0.93146-0.93146,1.68983-1.64404,2.27687c-0.71429,0.58702-1.57617,1.01118-2.58734,1.27077
			s-2.13605,0.39021-3.37628,0.39021c-1.27417,0-2.42444-0.13063-3.45258-0.39021c-1.0282-0.25958-1.90363-0.68375-2.62469-1.27077
			c-0.72278-0.58704-1.28265-1.34712-1.68134-2.27856c-0.40039-0.93144-0.59894-2.07495-0.59894-3.43394l0.00171-8.4305h-1.53033
			v-4.12787h9.68427v4.12787h-1.01965l-0.00171,9.71313c0,0.57007,0.1239,0.98235,0.36987,1.23344
			c0.24603,0.2511,0.61591,0.37665,1.10791,0.37665c0.49371,0,0.86188-0.12555,1.10956-0.37665
			c0.24603-0.2511,0.36987-0.66338,0.36987-1.23344l0.00171-9.71313h-1.01965v-4.12787l8.99542,0.00169v4.12787h-1.52863
			L715.09052,228.90089z"/>
		<path class="st14" d="M729.05371,235.92149h-11.1095v-4.12787h1.52869l0.00171-11.32323h-1.52869v-4.12787h11.44031
			c1.03662,0,1.97656,0.10519,2.81641,0.31387c0.84149,0.21039,1.55066,0.54971,2.1275,1.01967
			c0.57855,0.47166,1.02307,1.08414,1.33868,1.83914c0.31384,0.75499,0.47162,1.66946,0.46991,2.74342
			c0,1.09093-0.15778,2.00879-0.47162,2.75531c-0.31561,0.74651-0.76007,1.35559-1.33862,1.82216
			c-0.57684,0.46997-1.28607,0.8093-2.12756,1.01967c-0.83984,0.21039-1.77979,0.31387-2.81641,0.31387h-2.77734v3.62398h2.44653
			V235.92149z M727.47412,224.59657c0.4751,0,0.84155-0.12555,1.09601-0.37665c0.25452-0.25279,0.38177-0.66338,0.38177-1.23344
			v-0.90599c0-0.57007-0.12219-0.98235-0.36816-1.23344c-0.24603-0.2511-0.61591-0.37665-1.10791-0.37665h-0.86694l-0.00171,4.12617
			H727.47412z"/>
		<path class="st14" d="M737.56561,216.34422h10.1933v4.12787h-1.52869l-0.00171,11.32323h1.52869v4.12787h-10.1933v-4.12787
			h1.53033l0.00171-11.32323h-1.53033V216.34422z"/>
		<path class="st14" d="M771.9679,216.34593l8.91913,0.00169v4.12787h-1.52863l-0.00171,15.4511l-7.16144-0.00171l-7.4668-11.35036
			v7.22249h1.52863v4.12787h-8.91907v-4.12787h1.53033l0.00171-11.32321h-1.5304v-4.12787h9.45526l6.69995,10.11693l0.00171-5.98906
			h-1.52869V216.34593z"/>
		<path class="st14" d="M790.9259,231.79872h1.52869l-0.43268-1.98674h-3.44073l-0.40717,1.98674h1.52863v4.12787h-8.71552v-4.12787
			h1.01965l4.30945-15.4511h9.27539l4.30432,15.45279h1.01965v4.12787l-9.98969-0.00169V231.79872z M789.14276,227.1432h2.34473
			l-1.0451-5.03217h-0.25452L789.14276,227.1432z"/>
		<path class="st14" d="M817.70703,231.42377c0.56158,0,0.96027-0.08315,1.19781-0.2511
			c0.23749-0.16797,0.35626-0.41907,0.35626-0.755c0-0.23582-0.09668-0.44112-0.29181-0.61757
			c-0.19678-0.17644-0.59039-0.38173-1.18591-0.61586c-1.2572-0.46997-2.35663-0.91957-3.29993-1.34712
			c-0.94336-0.42755-1.72375-0.90091-2.34473-1.42177c-0.61926-0.51917-1.08246-1.12825-1.38782-1.82385
			c-0.30542-0.69562-0.45978-1.53883-0.45978-2.52966c0.00165-0.93993,0.15094-1.78314,0.44788-2.52965
			c0.29694-0.74652,0.78217-1.38445,1.45233-1.91209c0.67181-0.52765,1.56427-0.93144,2.67725-1.20799
			c1.11127-0.27655,2.48383-0.41566,4.11426-0.41566c1.47778,0.00169,2.87073,0.14929,4.17877,0.44281
			c1.30811,0.29352,2.39563,0.68373,3.26263,1.17067l-0.00171,4.50452h-5.35114c0-0.48692-0.13403-0.81776-0.40552-0.99422
			c-0.27313-0.17645-0.60394-0.26468-0.9942-0.26468c-0.56158-0.00169-0.96539,0.06956-1.21136,0.21208
			c-0.24603,0.14252-0.36987,0.39023-0.36987,0.74312c0,0.28503,0.13062,0.49371,0.39362,0.62944
			c0.263,0.13403,0.65826,0.28503,1.18591,0.4547c0.98407,0.31728,1.91553,0.6532,2.78925,1.00609
			c0.87549,0.35121,1.64404,0.78894,2.30743,1.30811c0.66168,0.52086,1.1842,1.1503,1.56598,1.88832
			c0.38342,0.73804,0.57343,1.64403,0.57343,2.71799c0,2.18016-0.71259,3.80382-2.1394,4.86929
			c-1.42688,1.06548-3.51709,1.59821-6.26904,1.59651c-1.56427,0-3.06744-0.13573-4.51129-0.40379
			c-1.44379-0.26807-2.59918-0.58702-3.46448-0.9552v-4.98296h5.60559c0,0.5022,0.10181,0.87715,0.30542,1.11977
			S817.06232,231.42377,817.70703,231.42377z"/>
		<path class="st14" d="M846.35101,228.91107c0,1.35899-0.19171,2.50252-0.57349,3.43396
			c-0.38342,0.93144-0.9314,1.69153-1.64398,2.27855c-0.71429,0.58704-1.57617,1.01118-2.58734,1.27077
			c-1.01117,0.25789-2.13605,0.38852-3.37628,0.38852c-1.27417,0-2.42444-0.13063-3.45264-0.39021
			c-1.02814-0.25958-1.90356-0.68375-2.62463-1.27077c-0.72278-0.58704-1.28265-1.34712-1.68134-2.27856
			c-0.40045-0.93144-0.59894-2.07495-0.59894-3.43394l0.00171-8.4305h-1.53033v-4.12787h9.68427v4.12787h-1.01965l-0.00171,9.71313
			c0,0.57007,0.12384,0.98235,0.36987,1.23344s0.61584,0.37665,1.10791,0.37665c0.49371,0,0.86188-0.12555,1.10956-0.37665
			c0.24603-0.2511,0.36987-0.66338,0.36987-1.23344l0.00171-9.71313h-1.01971v-4.12787l8.99548,0.00169v4.12787h-1.52863
			L846.35101,228.91107z"/>
		<path class="st14" d="M856.84967,231.8038h1.52863l-0.43262-1.98674h-3.44073l-0.40717,1.98674h1.52863v4.12787h-8.71552v-4.12787
			h1.01965l4.30945-15.4511h9.27539l4.30432,15.45279h1.01965v4.12787l-9.98969-0.00169V231.8038z M855.06653,227.14828h2.34473
			l-1.0451-5.03217h-0.25452L855.06653,227.14828z"/>
		<path class="st14" d="M678.47925,248.96848l24.8537,0.00171l5.92462,17.61343l5.72101-17.61174l23.96808,0.00169v8.42032h-3.12006
			l-0.00171,23.10538h3.12006l-0.00165,8.422l-20.79718-0.00339l0.00171-8.41861h3.12006l0.00171-20.28223l-10.34937,28.70084
			h-5.61578l-11.74738-28.80603l-0.00171,20.38403h3.12012l-0.00171,8.422l-18.19794-0.00339l0.00171-8.41861h3.12006
			l0.00171-23.10709h-3.12006V248.96848z"/>
		<path class="st14" d="M766.13837,257.39557h-6.29108l-0.00171,8.11322h4.57581v5.85248h-4.57581v9.14139h6.29108v-8.11322
			h11.64557l-0.00171,16.53522l-35.61365-0.00339l0.00165-8.422h3.11841l0.00171-23.10538h-3.11841v-8.42032l35.61371,0.00339
			l-0.00171,15.50708l-11.64557-0.00168L766.13837,257.39557z"/>
		<path class="st14" d="M796.3432,279.73239c1.14355,0,1.95789-0.16968,2.44318-0.51239
			c0.48523-0.33932,0.72784-0.85507,0.72784-1.54053c0-0.47842-0.20026-0.89581-0.59723-1.25549
			c-0.39868-0.35968-1.20459-0.78043-2.41766-1.26227c-2.56531-0.95691-4.80994-1.87308-6.73389-2.74515
			c-1.92395-0.87204-3.5188-1.83911-4.78278-2.90121c-1.26569-1.06207-2.20898-2.3006-2.83337-3.72321
			c-0.62433-1.42007-0.93481-3.13876-0.93481-5.15942c0-1.91718,0.30371-3.63583,0.90936-5.15941
			c0.60742-1.52356,1.59485-2.82487,2.96405-3.90222c1.36914-1.07906,3.18964-1.90021,5.45966-2.46518
			c2.27008-0.56497,5.06952-0.84662,8.39661-0.84492c3.01489,0,5.85669,0.29861,8.52716,0.89752
			c2.66882,0.59889,4.88629,1.39461,6.65417,2.38713v9.19228H803.2077c0-0.99252-0.2782-1.66946-0.83301-2.02914
			s-1.23004-0.53955-2.02747-0.53955c-1.14349,0-1.96637,0.14423-2.46857,0.43604c-0.50391,0.29013-0.755,0.79572-0.755,1.5134
			c0,0.58362,0.26807,1.01117,0.80591,1.28433c0.53784,0.27655,1.34369,0.58365,2.41766,0.92636
			c2.0105,0.64981,3.90729,1.33524,5.69214,2.05289c1.78485,0.71939,3.35254,1.61011,4.70471,2.66965
			c1.35223,1.06207,2.41772,2.34473,3.19812,3.85132c0.78046,1.50659,1.16901,3.3559,1.16901,5.54456
			c0,4.4519-1.45569,7.7637-4.36877,9.93536c-2.91144,2.17508-7.17499,3.26089-12.78912,3.26089
			c-3.18964,0-6.25714-0.27484-9.20245-0.82455c-2.94702-0.5463-5.30365-1.19778-7.07147-1.95111l0.00165-10.16611h11.4386
			c0,1.02814,0.20703,1.79163,0.62439,2.28702C794.15967,279.48468,795.02496,279.73239,796.3432,279.73239z"/>
		<path class="st14" d="M837.9884,280.50604l3.12006,0.00339l-0.88391-4.05829h-7.01892l-0.83307,4.0549h3.12012l-0.00171,8.422
			l-17.78058-0.00339l0.00171-8.41861h2.07837l8.78845-31.52568l18.92578,0.00169l8.7851,31.52737h2.08008l-0.00171,8.41861
			h-20.38147L837.9884,280.50604z M834.34912,271.00839h4.78278l-2.12927-10.26877h-0.52081L834.34912,271.00839z"/>
		<path class="st14" d="M861.80042,280.50943h8.1098l-0.00171,8.42203l-8.1098-0.00342L861.80042,280.50943z"/>
		<path class="st14" d="M685.3183,318.01147c0.57684,0,1.04004-0.17984,1.38953-0.54294
			c0.34778-0.35968,0.52258-0.96707,0.52258-1.82214v-8.95816h-2.82996l0.00165-4.12955l11.49292,0.00339l-0.00171,4.12616h-1.52869
			v8.73419c0,1.28943-0.2002,2.38205-0.59888,3.27109c-0.39868,0.88901-0.9433,1.61856-1.63043,2.18524
			c-0.68884,0.57346-1.49475,0.98404-2.42108,1.23514s-1.90698,0.37665-2.94366,0.37665c-0.76343,0-1.50317-0.05429-2.21747-0.16287
			c-0.71259-0.10858-1.23175-0.23074-1.55408-0.36649v-4.22797c0.37323,0.08484,0.77362,0.15271,1.19781,0.20361
			C684.62097,317.9877,684.99591,318.01147,685.3183,318.01147z"/>
		<path class="st14" d="M715.08374,315.12042c0,1.36069-0.19171,2.50421-0.57343,3.43396
			c-0.38348,0.93314-0.93146,1.68982-1.64404,2.27686c-0.71429,0.58704-1.57617,1.0112-2.58734,1.27246
			c-1.01117,0.2579-2.13605,0.39023-3.37628,0.39023c-1.27417,0-2.42444-0.13232-3.45264-0.39023
			c-1.02814-0.26126-1.90356-0.68542-2.62463-1.27246c-0.72278-0.58704-1.28265-1.34711-1.68134-2.27686
			c-0.40039-0.93314-0.59894-2.07666-0.59894-3.43396v-8.43219h-1.53033l0.00171-4.12616h9.68427l-0.00171,4.12616h-1.01965v9.71484
			c0,0.57007,0.12384,0.98065,0.36987,1.23175s0.61584,0.37665,1.10791,0.37665c0.49371,0,0.86188-0.12555,1.10956-0.37665
			c0.24603-0.2511,0.36987-0.66168,0.36987-1.23175v-9.71484h-1.01965l0.00171-4.12616h8.99542l-0.00171,4.12958h-1.52863V315.12042
			z"/>
		<path class="st14" d="M729.04688,322.14102h-11.10944v-4.12616h1.52869v-11.32321h-1.52869l0.00171-4.12958h11.44031
			c1.03662,0,1.97656,0.10519,2.81635,0.31558c0.84155,0.21036,1.55072,0.54968,2.12756,1.01794
			c0.57855,0.47168,1.02307,1.08585,1.33862,1.83914c0.31219,0.75668,0.46997,1.66946,0.46997,2.74512
			c0,1.08923-0.15778,2.00882-0.47162,2.75531c-0.31561,0.74652-0.76013,1.35391-1.33868,1.82217
			c-0.57684,0.46826-1.28601,0.80759-2.1275,1.01797c-0.83984,0.21039-1.77979,0.31555-2.81641,0.31555h-2.77734v3.62399h2.44647
			V322.14102z M727.46735,310.81781c0.47504,0,0.84155-0.12555,1.09601-0.37665c0.25452-0.25449,0.38177-0.66507,0.38177-1.23514
			v-0.90601c0-0.57004-0.1239-0.98062-0.36987-1.23172c-0.24603-0.2511-0.61591-0.37665-1.10791-0.37665h-0.86694v4.12616H727.46735
			z"/>
		<path class="st14" d="M737.55884,302.56546h10.19324l-0.00165,4.12619h-1.52869v11.32321h1.52869v4.12955h-10.1933v-4.12955
			h1.53033v-11.32321h-1.53033L737.55884,302.56546z"/>
		<path class="st14" d="M771.96112,302.56546l8.91913,0.00339l-0.00171,4.12619h-1.52863v15.45279l-7.16144-0.00342
			l-7.4668-11.35034v7.22418h1.52863v4.12616h-8.91913v-4.12616h1.5304v-11.32321h-1.5304l0.00171-4.12958h9.45526l6.69995,10.11862
			v-5.98904h-1.52869L771.96112,302.56546z"/>
		<path class="st14" d="M790.91913,318.01825h1.52869l-0.43268-1.98505h-3.44073l-0.40717,1.98505h1.52863v4.12958h-8.71552
			v-4.12958H782l4.30945-15.4494h9.27539l4.30432,15.45279h1.01965v4.12619h-9.98969V318.01825z M789.13599,313.36273h2.34473
			l-1.0451-5.03217h-0.25452L789.13599,313.36273z"/>
		<path class="st14" d="M817.70026,317.64499c0.56158,0,0.96027-0.08484,1.19781-0.2511
			c0.23749-0.16965,0.35626-0.42075,0.35626-0.75668c0-0.23413-0.09668-0.44113-0.29181-0.61758
			c-0.19684-0.17642-0.59045-0.38004-1.18591-0.61417c-1.2572-0.47165-2.35663-0.91956-3.29993-1.34711
			c-0.94336-0.42755-1.72382-0.90259-2.34473-1.42175c-0.61926-0.51917-1.08246-1.12997-1.38788-1.82556
			c-0.30536-0.69562-0.45978-1.53714-0.45978-2.52798c0-0.93991,0.14929-1.78482,0.44794-2.53134
			c0.29688-0.74652,0.7821-1.38443,1.45227-1.9104c0.67188-0.52933,1.56433-0.93314,2.67731-1.20798
			c1.11127-0.27826,2.48383-0.41736,4.11426-0.41736c1.47778,0.00339,2.87067,0.14929,4.17877,0.44449
			c1.30811,0.29184,2.39563,0.68204,3.26263,1.17068l-0.00171,4.50281h-5.35114c0-0.48523-0.13574-0.81775-0.40723-0.9942
			c-0.27313-0.17645-0.60394-0.26468-0.9942-0.26468c-0.56158,0-0.96539,0.07126-1.21136,0.21378
			c-0.24603,0.14252-0.36816,0.39023-0.36816,0.7431c0,0.28503,0.13062,0.49203,0.39362,0.62775
			c0.26294,0.13574,0.65826,0.28503,1.18591,0.45471c0.98407,0.31897,1.91547,0.65488,2.78925,1.00778
			c0.87549,0.34952,1.64404,0.78723,2.30743,1.3064c0.66162,0.52255,1.1842,1.1503,1.56592,1.89005
			c0.38348,0.73633,0.57349,1.6423,0.57349,2.71796c0,2.17847-0.71259,3.80383-2.1394,4.86929
			c-1.42688,1.06549-3.51709,1.59824-6.26904,1.59482c-1.56427,0-3.06744-0.13571-4.51129-0.40378s-2.59924-0.58704-3.46448-0.95349
			v-4.98468h5.60559c0,0.5022,0.10181,0.87885,0.30542,1.11978C816.62964,317.52283,817.05554,317.64499,817.70026,317.64499z"/>
		<path class="st14" d="M846.34424,315.13062c0,1.36069-0.19171,2.50421-0.57349,3.43396
			c-0.38342,0.93314-0.93146,1.69321-1.64398,2.28024c-0.71429,0.58704-1.57617,1.01117-2.58734,1.26907
			c-1.01123,0.25787-2.13605,0.39023-3.37628,0.39023c-1.27417,0-2.4245-0.13235-3.45264-0.39023
			c-1.02814-0.26129-1.90363-0.68542-2.62463-1.27246c-0.72278-0.58704-1.28265-1.34714-1.6814-2.27686
			c-0.40039-0.93317-0.59888-2.07666-0.59888-3.43396v-8.43219h-1.53033l0.00165-4.12619h9.68433l-0.00171,4.12619h-1.01965v9.71481
			c0,0.57007,0.12384,0.98065,0.36987,1.23175c0.24597,0.2511,0.61584,0.37665,1.10785,0.37665
			c0.49371,0,0.86188-0.12555,1.10962-0.37665c0.24597-0.2511,0.36987-0.66168,0.36987-1.23175v-9.71481h-1.01971l0.00171-4.12619
			h8.99548l-0.00171,4.12958h-1.52863V315.13062z"/>
		<path class="st14" d="M856.8429,318.02502h1.52863l-0.43262-1.98843h-3.44073l-0.40717,1.98843h1.52863v4.12619h-8.71552v-4.12619
			h1.01965l4.30939-15.45279h9.27545l4.30432,15.45279h1.01965v4.12958l-9.98969-0.00339V318.02502z M855.05975,313.36951h2.34473
			l-1.0451-5.03217h-0.25452L855.05975,313.36951z"/>
		<path class="st14" d="M713.77563,343.61002h-2.59918l3.58496,20.28137h0.52081l3.58838-20.28137h-2.59924v-8.41861h17.26141
			v8.41861h-2.08008l-8.26929,31.52655h-18.92578l-8.26251-31.52655h-2.08008v-8.422l19.8606,0.00339V343.61002z"/>
		<path class="st14" d="M735.81982,335.19141l20.79712,0.00339v8.41861h-3.11841l-0.00171,23.10455l3.11841,0.00339
			l-0.00171,8.41861h-20.79712l0.00171-8.422h3.12006l0.00171-23.10455h-3.12006V335.19141z"/>
		<path class="st14" d="M759.83881,335.19479h21.62848c2.66876,0,5.15601,0.33594,7.46173,1.00101
			c2.30402,0.66849,4.30597,1.79163,6.00433,3.36609c1.6983,1.57446,3.03351,3.63754,4.00397,6.18588
			c0.96881,2.5517,1.45404,5.69385,1.45404,9.423c0,3.76648-0.48694,6.91541-1.45569,9.44675
			c-0.97046,2.53137-2.30573,4.58768-4.00574,6.16214c-1.6983,1.57446-3.70032,2.69421-6.00433,3.36267
			c-2.30566,0.6651-4.79291,1.00101-7.46173,1.00101l-21.62848-0.00339l0.00171-8.41861h3.12012l0.00165-23.10794h-3.12006
			V335.19479z M780.53076,366.72134c1.17743,0,2.0614-0.29861,2.65009-0.8992c0.59045-0.59723,0.88397-1.5643,0.88397-2.90121
			l0.00165-15.50369c0-1.33694-0.31042-2.30402-0.93481-2.90121c-0.62433-0.60062-1.49133-0.8992-2.59918-0.8992h-3.0166
			l-0.00171,23.10452H780.53076z"/>
		<path class="st14" d="M822.01984,366.72473h3.12006l-0.88391-4.0549l-7.01892-0.00342l-0.83307,4.05832h3.12012l-0.00171,8.41861
			h-17.78052l0.00165-8.41861h2.07837l8.78851-31.52655h18.92572l8.7851,31.52655l2.08008,0.00339l-0.00171,8.41861h-20.38147
			L822.01984,366.72473z M818.38055,357.22369l4.78278,0.00339l-2.12927-10.26794h-0.52081L818.38055,357.22369z"/>
		<path class="st14" d="M845.83185,366.72812h8.1098l-0.00165,8.41861h-8.10986L845.83185,366.72812z"/>
	</g>
</g>
</svg>
